<?xml version="1.0" standalone="no"?>
<!DOCTYPE svg PUBLIC "-//W3C//DTD SVG 1.1//EN" "http://www.w3.org/Graphics/SVG/1.1/DTD/svg11.dtd" >
<svg xmlns="http://www.w3.org/2000/svg">
    <defs>
        <font id="HelveticaNeueCyr-Roman">
            <font-face font-family="HelveticaNeueCyr-Roman"
                       units-per-em="1000"
                       ascent="714"
                       descent="-198"
                       bbox="-29 -214 1068 899"
                    />
            <missing-glyph horiz-adv-x="0" />
            
            <glyph glyph-name="!" unicode="&#x21;" horiz-adv-x="182" d=" M177,712 L177,494 L152,177 L106,177 L83,494 L83,712 M182,101 L182,0 L77,0 L77,101"/> 
            <glyph glyph-name="&quot;" unicode="&#x22;" horiz-adv-x="323" d=" M159,418 L113,418 L103,696 L168,696 M314,418 L267,418 L258,696 L323,696"/> 
            <glyph glyph-name="#" unicode="&#x23;" horiz-adv-x="542" d=" M147,0 L82,0 L122,211 L14,211 L14,267 L132,267 L164,431 L56,431 L55,486 L174,486 L214,696 L279,696 L239,486 L369,486 L410,696 L474,696 L434,486 L542,486 L542,431 L424,431 L392,267 L500,267 L501,211 L382,211 L342,0 L278,0 L317,211 L187,211 M328,267 L359,431 L228,431 L197,267"/> 
            <glyph glyph-name="$" unicode="&#x24;" horiz-adv-x="519" d=" M298,788 L298,719 Q499,716 502,527 L418,527 L418,533 Q418,640 298,649 L298,401 Q343,388 366.5,380 Q390,372 424.5,355 Q459,338 476,318.5 Q493,299 506,267 Q519,235 519,193 Q519,101 461,46 Q403,-9 298,-16 L298,-99 L251,-99 L251,-16 Q150,-11 90.5,44.5 Q31,100 31,203 L31,213 L116,213 Q115,207 115,200 Q115,67 251,55 L251,330 Q153,349 99,393.5 Q45,438 45,522 Q45,611 102,660.5 Q159,710 251,719 L251,788 M251,410 L251,647 Q194,642 161,610.5 Q128,579 128,529 Q128,477 161,450 Q194,423 251,410 M298,319 L298,54 Q358,56 396,94 Q434,132 434,191 Q434,290 298,319"/> 
            <glyph glyph-name="%" unicode="&#x25;" horiz-adv-x="913" d=" M727,731 L328,-34 L260,-34 L661,731 M258,711 Q334,711 374.5,662 Q415,613 415,520 Q415,418 374,364 Q333,310 254,310 Q93,310 93,512 Q93,607 136,659 Q179,711 258,711 M340,653 Q168,653 168,507 Q168,367 254,367 Q340,367 340,516 M756,386 Q832,386 872.5,337 Q913,288 913,195 Q913,93 872,39 Q831,-15 752,-15 Q591,-15 591,187 Q591,282 634,334 Q677,386 756,386 M838,328 Q666,328 666,182 Q666,42 752,42 Q838,42 838,191"/> 
            <glyph glyph-name="&amp;" unicode="&#x26;" horiz-adv-x="644" d=" M555,337 Q550,236 506,161 L644,0 L534,0 L458,90 Q384,-15 250,-15 Q158,-15 95.5,39.5 Q33,94 33,186 Q33,256 81,312.5 Q129,369 200,400 Q123,494 123,565 Q123,632 169.5,674 Q216,716 289,716 Q361,716 406.5,674.5 Q452,633 452,568 Q452,452 321,383 L451,224 Q471,273 474,337 M276,438 Q370,494 370,561 Q370,598 346.5,622 Q323,646 288,646 Q253,646 229,623.5 Q205,601 205,568 Q205,561 206.5,553 Q208,545 211,537 Q214,529 217,522.5 Q220,516 226,506.5 Q232,497 235,492 Q238,487 245.5,476.5 Q253,466 255.5,463 Q258,460 266.5,449.5 Q275,439 276,438 M246,345 Q122,282 122,190 Q122,135 162,96.5 Q202,58 259,58 Q353,58 410,147"/> 
            <glyph glyph-name="'" unicode="&#x27;" horiz-adv-x="171" d=" M162,418 L116,418 L106,696 L171,696"/> 
            <glyph glyph-name="(" unicode="&#x28;" horiz-adv-x="269" d=" M269,725 Q136,520 136,264 Q136,20 269,-190 L204,-190 Q123,-64 85.5,37.5 Q48,139 48,263 Q48,516 204,725"/> 
            <glyph glyph-name=")" unicode="&#x29;" horiz-adv-x="209" d=" M209,263 Q209,139 171.5,37.5 Q134,-64 53,-190 L-12,-190 Q121,20 121,264 Q121,520 -12,725 L53,725 Q209,516 209,263"/> 
            <glyph glyph-name="*" unicode="&#x2A;" horiz-adv-x="328" d=" M328,601 L219,563 L285,473 L244,443 L175,537 L109,443 L65,473 L130,563 L24,601 L41,650 L148,610 L148,723 L202,723 L202,610 L308,650"/> 
            <glyph glyph-name="+" unicode="&#x2B;" horiz-adv-x="551" d=" M267,0 L267,221 L49,221 L49,280 L267,280 L267,501 L333,501 L333,280 L551,280 L551,221 L333,221 L333,0"/> 
            <glyph glyph-name="," unicode="&#x2C;" horiz-adv-x="194" d=" M194,111 L194,43 Q194,5 190.5,-21.5 Q187,-48 176,-75 Q165,-102 142,-120.5 Q119,-139 83,-148 L83,-98 Q137,-80 138,0 L83,0 L83,111"/> 
            <glyph glyph-name="-" unicode="&#x2D;" horiz-adv-x="340" d=" M340,320 L340,236 L49,236 L49,320"/> 
            <glyph glyph-name="." unicode="&#x2E;" horiz-adv-x="194" d=" M194,111 L194,0 L83,0 L83,111"/> 
            <glyph glyph-name="/" unicode="&#x2F;" horiz-adv-x="351" d=" M351,729 L54,-17 L-18,-17 L281,729"/> 
            <glyph glyph-name="0" unicode="&#x30;" horiz-adv-x="514" d=" M277,709 Q341,709 386.5,685.5 Q432,662 456,628 Q480,594 494,539.5 Q508,485 511,441.5 Q514,398 514,337 Q514,281 509.5,236 Q505,191 490.5,142 Q476,93 451,60.5 Q426,28 383,7 Q340,-14 281,-14 Q219,-14 173.5,7.5 Q128,29 103,61 Q78,93 63.5,142.5 Q49,192 45,236.5 Q41,281 41,339 Q41,389 43.5,426 Q46,463 53.5,509.5 Q61,556 77,588.5 Q93,621 118,650 Q143,679 183.5,694 Q224,709 277,709 M308,633 Q246,633 222,621.5 Q198,610 183,595 Q168,580 157,550.5 Q146,521 141.5,501 Q137,481 134,443.5 Q131,406 131,390.5 Q131,375 131,339 Q131,304 132,281 Q133,258 137,221 Q141,184 151,159.5 Q161,135 176,110.5 Q191,86 217.5,73.5 Q244,61 279,61 Q309,61 332.5,72 Q356,83 371,98 Q386,113 396.5,140.5 Q407,168 412,188.5 Q417,209 419.5,243.5 Q422,278 422.5,294.5 Q423,311 423,343 Q423,378 423,393 Q423,408 420,445 Q417,482 412.5,502 Q408,522 397,551 Q386,580 371,595 Q356,610 308,633"/> 
            <glyph glyph-name="1" unicode="&#x31;" horiz-adv-x="358" d=" M358,708 L358,0 L265,0 L265,513 L87,513 L87,577 Q173,577 223.5,605 Q274,633 291,708"/> 
            <glyph glyph-name="2" unicode="&#x32;" horiz-adv-x="493" d=" M487,77 L487,0 L25,0 Q28,59 43,103 Q58,147 89.5,182.5 Q121,218 151,241 Q181,264 236,298 Q322,352 349,379 Q405,434 405,501 Q405,560 367,597.5 Q329,635 268,635 Q195,635 163.5,584.5 Q132,534 130,457 L44,457 L44,476 Q44,581 106.5,645 Q169,709 272,709 Q373,709 433,653 Q493,597 493,503 Q493,463 479.5,427.5 Q466,392 449.5,368 Q433,344 399.5,317 Q366,290 344,275.5 Q322,261 281,236 Q199,187 172,160 Q134,122 123,77"/> 
            <glyph glyph-name="3" unicode="&#x33;" horiz-adv-x="513" d=" M46,479 Q49,589 107.5,649 Q166,709 271,709 Q365,709 422,658 Q479,607 479,524 Q479,474 453.5,434.5 Q428,395 382,376 Q442,362 477,316 Q512,270 512,205 Q513,107 444.5,46.5 Q376,-14 267,-14 Q159,-14 94.5,45.5 Q30,105 30,206 L30,219 L114,219 Q117,143 157,102 Q197,61 268,61 Q336,61 378.5,99.5 Q421,138 421,199 Q421,261 378.5,298 Q336,335 264,335 Q246,335 218,331 L218,403 Q232,402 247,402 Q313,402 351.5,433.5 Q390,465 390,519 Q390,571 356.5,603 Q323,635 267,635 Q203,635 167,594.5 Q131,554 129,479"/> 
            <glyph glyph-name="4" unicode="&#x34;" horiz-adv-x="515" d=" M515,243 L515,171 L419,171 L419,0 L339,0 L339,171 L28,171 L28,251 L350,709 L419,709 L419,243 M339,243 L339,584 L103,243"/> 
            <glyph glyph-name="5" unicode="&#x35;" horiz-adv-x="509" d=" M471,696 L471,621 L184,621 L142,410 Q194,466 285,466 Q385,466 447,401.5 Q509,337 509,234 Q509,126 441,56 Q373,-14 264,-14 Q163,-14 100.5,42 Q38,98 35,191 L121,191 Q126,132 166,95 Q206,58 265,58 Q331,58 375,106 Q419,154 419,225 Q419,299 376,345.5 Q333,392 264,392 Q176,392 128,323 L55,328 L121,696"/> 
            <glyph glyph-name="6" unicode="&#x36;" horiz-adv-x="519" d=" M500,525 L413,525 Q406,576 375.5,605.5 Q345,635 293,635 Q257,635 228.5,622 Q200,609 182.5,584.5 Q165,560 153,535 Q141,510 135,474 Q129,438 127,415.5 Q125,393 123,361 Q181,454 299,454 Q398,454 458.5,391.5 Q519,329 519,227 Q519,122 455.5,54 Q392,-14 286,-14 Q39,-14 39,338 Q39,393 45.5,442 Q52,491 69.5,541.5 Q87,592 115,628 Q143,664 189.5,686.5 Q236,709 296,709 Q385,709 439,660.5 Q493,612 500,525 M284,380 Q219,380 179,336.5 Q139,293 139,223 Q139,150 179.5,106 Q220,62 286,62 Q350,62 389.5,104.5 Q429,147 429,219 Q429,293 390,336.5 Q351,380 284,380"/> 
            <glyph glyph-name="7" unicode="&#x37;" horiz-adv-x="504" d=" M504,696 L504,623 Q272,358 233,0 L139,0 Q151,164 225.5,325 Q300,486 417,615 L46,615 L46,696"/> 
            <glyph glyph-name="8" unicode="&#x38;" horiz-adv-x="515" d=" M165,379 Q118,399 92.5,437.5 Q67,476 67,528 Q67,608 126,658.5 Q185,709 278,709 Q370,709 428.5,659.5 Q487,610 487,532 Q487,424 390,379 Q515,335 515,206 Q515,105 450,45.5 Q385,-14 275,-14 Q169,-14 104.5,44.5 Q40,103 40,200 Q40,264 72.5,310.5 Q105,357 165,379 M334,633 Q222,633 188,602.5 Q154,572 154,522 Q154,472 188,441.5 Q222,411 278,411 Q333,411 366.5,441.5 Q400,472 400,522 Q400,573 334,633 M275,342 Q211,342 170,302.5 Q129,263 129,202 Q129,139 170.5,98.5 Q212,58 277,58 Q343,58 384.5,98 Q426,138 426,201 Q426,264 384,303 Q342,342 275,342"/> 
            <glyph glyph-name="9" unicode="&#x39;" horiz-adv-x="512" d=" M50,171 L134,171 Q141,119 175.5,89.5 Q210,60 264,60 Q403,60 422,291 Q424,312 424,338 Q364,241 251,241 Q154,241 94,304.5 Q34,368 34,471 Q34,577 99,643 Q164,709 268,709 Q512,709 512,363 Q512,310 505.5,261.5 Q499,213 482,161.5 Q465,110 438,72 Q411,34 365.5,10 Q320,-14 261,-14 Q171,-14 113.5,35 Q56,84 50,171 M264,633 Q201,633 162.5,589.5 Q124,546 124,474 Q124,406 160.5,361.5 Q197,317 264,317 Q329,317 369,359.5 Q409,402 409,472 Q409,545 369,589 Q329,633 264,633"/> 
            <glyph glyph-name=":" unicode="&#x3A;" horiz-adv-x="194" d=" M194,111 L194,0 L83,0 L83,111 M194,516 L194,405 L83,405 L83,516"/> 
            <glyph glyph-name=";" unicode="&#x3B;" horiz-adv-x="194" d=" M194,111 L194,43 Q194,5 190.5,-21.5 Q187,-48 176,-75 Q165,-102 142,-120.5 Q119,-139 83,-148 L83,-98 Q137,-80 138,0 L83,0 L83,111 M194,516 L194,405 L83,405 L83,516"/> 
            <glyph glyph-name="&lt;" unicode="&#x3C;" horiz-adv-x="551" d=" M49,223 L49,288 L551,488 L551,421 L128,255 L551,91 L551,24"/> 
            <glyph glyph-name="=" unicode="&#x3D;" horiz-adv-x="551" d=" M49,324 L49,384 L551,384 L551,324 M49,134 L49,193 L551,193 L551,134"/> 
            <glyph glyph-name="&gt;" unicode="&#x3E;" horiz-adv-x="551" d=" M551,223 L49,24 L49,91 L472,255 L49,421 L49,488 L551,288"/> 
            <glyph glyph-name="?" unicode="&#x3F;" horiz-adv-x="491" d=" M55,489 Q55,593 112.5,659 Q170,725 280,725 Q376,725 433.5,673 Q491,621 491,533 Q491,480 472,441.5 Q453,403 413,366 Q408,361 387.5,342.5 Q367,324 364,320 Q361,316 347.5,301 Q334,286 332,277.5 Q330,269 324,252 Q318,235 317,216.5 Q316,198 316,173 L234,173 L234,179 Q234,224 238.5,253 Q243,282 259.5,309.5 Q276,337 290.5,353 Q305,369 344,408 Q376,440 388.5,465.5 Q401,491 401,523 Q401,581 368,615 Q335,649 279,649 Q148,649 139,489 M326,101 L326,0 L221,0 L221,101"/> 
            <glyph glyph-name="@" unicode="&#x40;" horiz-adv-x="769" d=" M701,119 L722,90 Q645,33 574,8 Q503,-17 418,-17 Q255,-17 143,83 Q31,183 31,345 Q31,508 147,618.5 Q263,729 435,729 Q582,729 675.5,646 Q769,563 769,431 Q769,325 708,246.5 Q647,168 566,168 Q531,168 509.5,188 Q488,208 488,239 Q488,252 493,272 Q442,168 350,168 Q290,168 253,209.5 Q216,251 216,318 Q216,416 275.5,488.5 Q335,561 414,561 Q513,561 534,471 L555,546 L613,546 L554,347 Q534,278 534,253 Q534,233 546.5,221.5 Q559,210 581,210 Q638,210 683.5,278.5 Q729,347 729,433 Q729,548 647,619 Q565,690 434,690 Q279,690 175,591 Q71,492 71,344 Q71,199 172,110.5 Q273,22 420,22 Q499,22 564.5,46 Q630,70 701,119 M507,430 Q507,470 485,495 Q463,520 426,520 Q365,520 324.5,451.5 Q284,383 284,317 Q284,268 306,239 Q328,210 366,210 Q428,210 467.5,286 Q507,362 507,430"/> 
            <glyph glyph-name="A" unicode="&#x41;" horiz-adv-x="656" d=" M378,712 L656,0 L551,0 L472,218 L173,218 L92,0 L-8,0 L272,712 M444,293 L323,622 L200,293"/> 
            <glyph glyph-name="B" unicode="&#x42;" horiz-adv-x="642" d=" M79,712 L383,712 Q481,712 545.5,669 Q610,626 610,534 Q610,481 581.5,439.5 Q553,398 505,381 Q571,366 606.5,319 Q642,272 642,201 Q642,0 372,0 L79,0 M171,632 L171,407 L340,407 Q369,407 389.5,408.5 Q410,410 436,416 Q462,422 477.5,433.5 Q493,445 504.5,467 Q516,489 516,520 Q516,551 506,572.5 Q496,594 482,605.5 Q468,617 443.5,623 Q419,629 399.5,630.5 Q380,632 349,632 M171,333 L171,79 L359,79 Q394,79 416,80.5 Q438,82 465.5,89 Q493,96 509,109.5 Q525,123 536,148.5 Q547,174 547,210 Q547,240 539.5,262 Q532,284 514.5,297 Q497,310 481.5,318 Q466,326 437,329 Q408,332 392,332.5 Q376,333 343,333"/> 
            <glyph glyph-name="C" unicode="&#x43;" horiz-adv-x="682" d=" M682,269 Q670,134 588.5,58.5 Q507,-17 374,-17 Q222,-17 133,83.5 Q44,184 44,355 Q44,515 133.5,621.5 Q223,728 381,728 Q494,728 580,667 Q666,606 676,498 L582,498 Q566,568 512,607.5 Q458,647 379,647 Q260,647 199.5,563 Q139,479 139,356 Q139,220 203,142 Q267,64 378,64 Q469,64 523,116.5 Q577,169 588,269"/> 
            <glyph glyph-name="D" unicode="&#x44;" horiz-adv-x="664" d=" M79,712 L311,712 Q492,712 578,628 Q664,544 664,362 Q664,183 584,91.5 Q504,0 328,0 L79,0 M173,631 L173,81 L316,81 Q450,81 510.5,146.5 Q571,212 571,351 Q571,497 512,564 Q453,631 312,631"/> 
            <glyph glyph-name="E" unicode="&#x45;" horiz-adv-x="577" d=" M572,712 L572,630 L173,630 L173,407 L546,407 L546,328 L173,328 L173,82 L577,82 L577,0 L79,0 L79,712"/> 
            <glyph glyph-name="F" unicode="&#x46;" horiz-adv-x="548" d=" M548,712 L548,630 L174,630 L174,408 L504,408 L504,329 L174,329 L174,0 L80,0 L80,712"/> 
            <glyph glyph-name="G" unicode="&#x47;" horiz-adv-x="697" d=" M697,377 L697,0 L637,0 L613,89 Q527,-17 383,-17 Q231,-17 137.5,84.5 Q44,186 44,350 Q44,513 136.5,620 Q229,727 390,727 Q464,727 528,701.5 Q592,676 637,621.5 Q682,567 688,493 L596,493 Q585,563 528.5,605.5 Q472,648 390,648 Q274,648 206,568.5 Q138,489 138,353 Q138,219 206,140 Q274,61 389,61 Q497,61 553.5,126.5 Q610,192 613,300 L385,300 L385,377"/> 
            <glyph glyph-name="H" unicode="&#x48;" horiz-adv-x="643" d=" M643,712 L643,0 L549,0 L549,333 L173,333 L173,0 L79,0 L79,712 L173,712 L173,415 L549,415 L549,712"/> 
            <glyph glyph-name="I" unicode="&#x49;" horiz-adv-x="177" d=" M177,712 L177,0 L83,0 L83,712"/> 
            <glyph glyph-name="J" unicode="&#x4A;" horiz-adv-x="443" d=" M443,712 L443,219 Q443,165 433.5,125 Q424,85 402,51.5 Q380,18 339,0.5 Q298,-17 238,-17 Q125,-17 75,39 Q25,95 25,207 Q25,221 26,234 L117,234 L117,209 Q117,137 141.5,99 Q166,61 237,61 Q269,61 290.5,71 Q312,81 323.5,94.5 Q335,108 341,133 Q347,158 348,177 Q349,196 349,228 L349,712"/> 
            <glyph glyph-name="K" unicode="&#x4B;" horiz-adv-x="669" d=" M657,712 L357,426 L669,0 L549,0 L291,362 L173,250 L173,0 L79,0 L79,712 L173,712 L173,359 L534,712"/> 
            <glyph glyph-name="L" unicode="&#x4C;" horiz-adv-x="552" d=" M552,82 L552,0 L80,0 L80,712 L174,712 L174,82"/> 
            <glyph glyph-name="M" unicode="&#x4D;" horiz-adv-x="791" d=" M80,712 L210,712 L439,109 L660,712 L791,712 L791,0 L702,0 L702,594 L479,0 L397,0 L170,594 L170,0 L80,0"/> 
            <glyph glyph-name="N" unicode="&#x4E;" horiz-adv-x="645" d=" M75,712 L178,712 L554,134 L554,712 L645,712 L645,0 L539,0 L165,571 L165,0 L75,0"/> 
            <glyph glyph-name="O" unicode="&#x4F;" horiz-adv-x="721" d=" M379,729 Q541,729 631,627.5 Q721,526 721,362 Q721,197 632,90 Q543,-17 380,-17 Q297,-17 231,13 Q165,43 123.5,96 Q82,149 60.5,217 Q39,285 39,364 Q39,531 131.5,630 Q224,729 379,729 M379,647 Q260,647 196.5,563.5 Q133,480 133,357 Q133,223 200.5,143.5 Q268,64 381,64 Q493,64 560,144 Q627,224 627,357 Q627,489 559.5,568 Q492,647 379,647"/> 
            <glyph glyph-name="P" unicode="&#x50;" horiz-adv-x="613" d=" M83,712 L376,712 Q485,712 549,662.5 Q613,613 613,507 Q613,292 370,292 L177,292 L177,0 L83,0 M177,631 L177,371 L358,371 Q434,371 476.5,399.5 Q519,428 519,501 Q519,542 505.5,569 Q492,596 466,609 Q440,622 412,626.5 Q384,631 345,631"/> 
            <glyph glyph-name="Q" unicode="&#x51;" horiz-adv-x="721" d=" M709,-2 L660,-61 L552,26 Q478,-17 378,-17 Q218,-17 128.5,91 Q39,199 39,364 Q39,529 132,628.5 Q225,728 380,728 Q538,728 629.5,629.5 Q721,531 721,359 Q721,174 615,73 M451,204 L545,127 Q627,209 627,357 Q627,488 560,567.5 Q493,647 382,647 Q263,647 198,564.5 Q133,482 133,360 Q133,233 196.5,148 Q260,63 384,63 Q441,63 481,83 L401,146"/> 
            <glyph glyph-name="R" unicode="&#x52;" horiz-adv-x="658" d=" M79,712 L392,712 Q631,712 631,515 Q631,453 597.5,405.5 Q564,358 509,342 Q545,334 567,319 Q589,304 599,277 Q609,250 612,229 Q615,208 617,167 Q617,163 618,147.5 Q619,132 619,126.5 Q619,121 620.5,107 Q622,93 623,86 Q624,79 626,67 Q628,55 631,47.5 Q634,40 638,30.5 Q642,21 647,13.5 Q652,6 658,0 L550,0 Q543,10 538.5,25 Q534,40 532,60.5 Q530,81 529,93.5 Q528,106 527,130 Q526,154 526,157 Q521,248 488.5,278 Q456,308 360,308 L173,308 L173,0 L79,0 M173,632 L173,383 L350,383 Q383,383 405.5,385 Q428,387 455,394 Q482,401 498.5,414 Q515,427 526,451 Q537,475 537,509 Q537,581 493.5,606.5 Q450,632 375,632"/> 
            <glyph glyph-name="S" unicode="&#x53;" horiz-adv-x="611" d=" M583,503 L492,503 Q477,648 315,648 Q238,648 196,617 Q154,586 154,530 Q154,510 160,495 Q166,480 180.5,468.5 Q195,457 208,449 Q221,441 249,433 Q277,425 294,421.5 Q311,418 347,410 Q391,401 420,393.5 Q449,386 489,369 Q529,352 552.5,331.5 Q576,311 593.5,277 Q611,243 611,200 Q611,125 569,74.5 Q527,24 467,4 Q407,-16 334,-16 Q200,-16 119.5,47.5 Q39,111 39,235 L130,235 Q133,144 191,102.5 Q249,61 342,61 Q415,61 467,91.5 Q519,122 519,191 Q519,223 505,245.5 Q491,268 461,282.5 Q431,297 401,306 Q371,315 322,326 Q315,327 312,328 Q202,353 168,368 Q64,413 64,523 Q64,625 139.5,675.5 Q215,726 322,726 Q439,726 509,670 Q579,614 583,503"/> 
            <glyph glyph-name="T" unicode="&#x54;" horiz-adv-x="573" d=" M573,712 L573,630 L334,630 L334,0 L240,0 L240,630 L1,630 L1,712"/> 
            <glyph glyph-name="U" unicode="&#x55;" horiz-adv-x="648" d=" M74,712 L169,712 L169,263 Q169,159 214,111 Q259,63 361,63 Q466,63 509.5,112 Q553,161 553,263 L553,712 L648,712 L648,288 Q648,132 583,58.5 Q518,-15 361,-15 Q209,-15 141.5,56.5 Q74,128 74,278"/> 
            <glyph glyph-name="V" unicode="&#x56;" horiz-adv-x="613" d=" M-2,712 L102,712 L307,92 L514,712 L613,712 L359,0 L251,0"/> 
            <glyph glyph-name="W" unicode="&#x57;" horiz-adv-x="915" d=" M14,712 L111,712 L252,117 L413,712 L516,712 L675,117 L821,712 L915,712 L725,0 L626,0 L462,596 L296,0 L197,0"/> 
            <glyph glyph-name="X" unicode="&#x58;" horiz-adv-x="608" d=" M595,712 L358,367 L608,0 L494,0 L302,293 L103,0 L-5,0 L246,367 L11,712 L124,712 L303,438 L488,712"/> 
            <glyph glyph-name="Y" unicode="&#x59;" horiz-adv-x="648" d=" M648,712 L373,291 L373,0 L280,0 L280,291 L3,712 L116,712 L329,373 L540,712"/> 
            <glyph glyph-name="Z" unicode="&#x5A;" horiz-adv-x="585" d=" M574,712 L574,634 L130,82 L585,82 L585,0 L17,0 L17,80 L460,630 L52,630 L52,712"/> 
            <glyph glyph-name="[" unicode="&#x5B;" horiz-adv-x="261" d=" M261,723 L261,655 L153,655 L153,-120 L261,-120 L261,-188 L72,-188 L72,723"/> 
            <glyph glyph-name="\" unicode="&#x5C;" horiz-adv-x="351" d=" M351,-17 L279,-17 L-18,729 L52,729"/> 
            <glyph glyph-name="]" unicode="&#x5D;" horiz-adv-x="187" d=" M187,723 L187,-188 L-2,-188 L-2,-120 L106,-120 L106,655 L-2,655 L-2,723"/> 
            <glyph glyph-name="^" unicode="&#x5E;" horiz-adv-x="501" d=" M99,281 L269,696 L331,696 L501,281 L432,281 L299,617 L168,281"/> 
            <glyph glyph-name="_" unicode="&#x5F;" horiz-adv-x="500" d=" M0,-125 L0,-75 L500,-75 L500,-125"/> 
            <glyph glyph-name="`" unicode="&#x60;" horiz-adv-x="172" d=" M86,732 L172,590 L108,590 L-24,732"/> 
            <glyph glyph-name="a" unicode="&#x61;" horiz-adv-x="521" d=" M521,68 L521,2 Q495,-8 463,-8 Q390,-8 388,68 Q315,-14 201,-14 Q125,-14 80.5,25 Q36,64 36,132 Q36,270 219,293 Q231,295 254,297 Q341,307 361,320 Q384,336 384,375 Q384,460 267,460 Q207,460 176,435.5 Q145,411 139,355 L56,355 Q58,438 115,484 Q172,530 272,530 Q381,530 434,480 Q451,464 459,438 Q467,412 468,395.5 Q469,379 469,346 Q469,308 467,231 Q465,154 465,116 Q465,88 472.5,76.5 Q480,65 500,65 Q508,65 521,68 M384,268 Q375,261 365,256 Q355,251 339.5,248 Q324,245 318.5,243.5 Q313,242 292,239.5 Q271,237 270,237 Q239,233 229.5,231.5 Q220,230 193.5,223 Q167,216 156,207 Q145,198 134.5,180.5 Q124,163 124,139 Q124,99 151.5,76 Q179,53 227,53 Q288,53 336,89 Q384,125 384,174"/> 
            <glyph glyph-name="b" unicode="&#x62;" horiz-adv-x="552" d=" M148,712 L148,445 Q204,530 319,530 Q425,530 488.5,456.5 Q552,383 552,260 Q552,135 487,60 Q422,-15 314,-15 Q191,-15 143,75 L143,0 L63,0 L63,712 M306,458 Q224,458 184.5,399 Q145,340 145,254 Q145,163 188.5,109.5 Q232,56 306,56 Q377,56 420.5,111.5 Q464,167 464,259 Q464,350 421,404 Q378,458 306,458"/> 
            <glyph glyph-name="c" unicode="&#x63;" horiz-adv-x="508" d=" M508,188 Q497,95 437.5,40 Q378,-15 283,-15 Q166,-15 102,57.5 Q38,130 38,251 Q38,380 105,455.5 Q172,531 286,531 Q381,531 438,483.5 Q495,436 505,348 L417,348 Q394,460 287,460 Q213,460 170,405.5 Q127,351 127,258 Q127,164 168,110 Q209,56 281,56 Q339,56 375.5,90 Q412,124 422,188"/> 
            <glyph glyph-name="d" unicode="&#x64;" horiz-adv-x="529" d=" M529,712 L529,0 L449,0 L449,76 Q400,-14 279,-14 Q169,-14 104.5,59.5 Q40,133 40,259 Q40,376 100.5,453.5 Q161,531 275,531 Q386,531 444,447 L444,712 M286,458 Q213,458 170.5,405 Q128,352 128,261 Q128,167 171.5,111.5 Q215,56 288,56 Q362,56 404,109.5 Q446,163 446,258 Q446,343 406.5,400.5 Q367,458 286,458"/> 
            <glyph glyph-name="e" unicode="&#x65;" horiz-adv-x="511" d=" M505,163 Q466,-17 280,-17 Q166,-17 101.5,54 Q37,125 37,251 Q37,376 103.5,453.5 Q170,531 277,531 Q396,531 453.5,450.5 Q511,370 511,247 L511,235 L123,235 L122,229 Q122,147 165,100 Q208,53 283,53 Q339,53 371.5,79 Q404,105 422,163 M423,304 Q417,378 378,419.5 Q339,461 275,461 Q213,461 172,419 Q131,377 123,304"/> 
            <glyph glyph-name="f" unicode="&#x66;" horiz-adv-x="297" d=" M297,714 L297,640 Q275,644 250,644 Q210,644 197.5,631 Q185,618 185,575 L185,516 L284,516 L284,446 L185,446 L185,0 L99,0 L99,446 L12,446 L12,516 L99,516 L99,585 Q99,655 135,686.5 Q171,718 242,718 Q264,718 297,714"/> 
            <glyph glyph-name="g" unicode="&#x67;" horiz-adv-x="511" d=" M511,516 L511,56 Q511,-11 504,-47.5 Q497,-84 478,-116 Q421,-210 274,-210 Q187,-210 127,-174.5 Q67,-139 57,-58 L144,-58 Q159,-144 277,-144 Q356,-144 391.5,-104 Q427,-64 429,25 L430,88 Q381,-6 266,-6 Q162,-6 100.5,65 Q39,136 39,256 Q39,369 100,449.5 Q161,530 270,530 Q324,530 366.5,507 Q409,484 433,441 L433,516 M274,456 Q205,456 165.5,402.5 Q126,349 126,255 Q126,170 167,118.5 Q208,67 276,67 Q347,67 387.5,121 Q428,175 428,269 Q428,357 387.5,406.5 Q347,456 274,456"/> 
            <glyph glyph-name="h" unicode="&#x68;" horiz-adv-x="492" d=" M149,712 L149,443 Q206,529 318,529 Q492,529 492,353 L492,0 L407,0 L407,333 Q407,392 382.5,423.5 Q358,455 294,455 Q216,455 182.5,405 Q149,355 149,262 L149,0 L64,0 L64,712"/> 
            <glyph glyph-name="i" unicode="&#x69;" horiz-adv-x="154" d=" M154,712 L154,608 L68,608 L68,712 M154,516 L154,0 L68,0 L68,516"/> 
            <glyph glyph-name="j" unicode="&#x6A;" horiz-adv-x="156" d=" M156,516 L156,-57 Q156,-135 129,-171.5 Q102,-208 24,-208 Q8,-208 -15,-204 L-15,-133 Q11,-135 14,-135 Q35,-135 47,-131 Q59,-127 64,-114 Q69,-101 69.5,-91.5 Q70,-82 70,-55 L70,516 M156,712 L156,608 L70,608 L70,712"/> 
            <glyph glyph-name="k" unicode="&#x6B;" horiz-adv-x="513" d=" M498,516 L293,329 L513,0 L405,0 L228,270 L147,195 L147,0 L64,0 L64,712 L147,712 L147,291 L384,516"/> 
            <glyph glyph-name="l" unicode="&#x6C;" horiz-adv-x="154" d=" M154,712 L154,0 L68,0 L68,712"/> 
            <glyph glyph-name="m" unicode="&#x6D;" horiz-adv-x="789" d=" M144,516 L144,441 Q178,487 217,508 Q256,529 312,529 Q418,529 455,440 Q522,530 626,530 Q706,530 747.5,485.5 Q789,441 789,361 L789,0 L704,0 L704,325 Q704,389 684,421.5 Q664,454 601,454 Q469,454 469,293 L469,0 L384,0 L384,331 Q384,390 364.5,421.5 Q345,453 289,453 Q210,453 179.5,404.5 Q149,356 149,273 L149,0 L64,0 L64,516"/> 
            <glyph glyph-name="n" unicode="&#x6E;" horiz-adv-x="492" d=" M144,516 L144,436 Q208,530 320,530 Q411,530 451.5,482.5 Q492,435 492,343 L492,0 L407,0 L407,304 Q407,342 404.5,363.5 Q402,385 392,409.5 Q382,434 358,445 Q334,456 296,456 Q149,456 149,270 L149,0 L64,0 L64,516"/> 
            <glyph glyph-name="o" unicode="&#x6F;" horiz-adv-x="537" d=" M173,531 Q407,531 472,460 Q537,389 537,261 Q537,130 472,57 Q407,-16 289,-16 Q171,-16 104,56 Q37,128 37,256 Q37,383 173,531 M363,460 Q213,460 169,405 Q125,350 125,258 Q125,163 168.5,109.5 Q212,56 290,56 Q365,56 407.5,110 Q450,164 450,259 Q450,351 363,460"/> 
            <glyph glyph-name="p" unicode="&#x70;" horiz-adv-x="553" d=" M144,516 L144,443 Q200,532 318,532 Q426,532 489.5,459 Q553,386 553,261 Q553,136 490.5,61.5 Q428,-13 322,-13 Q211,-13 149,72 L149,-199 L64,-199 L64,516 M305,461 Q231,461 188.5,407.5 Q146,354 146,260 Q146,166 189.5,112.5 Q233,59 308,59 Q381,59 423,113 Q465,167 465,260 Q465,354 422.5,407.5 Q380,461 305,461"/> 
            <glyph glyph-name="q" unicode="&#x71;" horiz-adv-x="529" d=" M529,516 L529,-199 L444,-199 L444,73 Q391,-13 271,-13 Q160,-13 100.5,64.5 Q41,142 41,256 Q41,383 105,457.5 Q169,532 279,532 Q396,532 450,443 L450,516 M286,461 Q215,461 172,405.5 Q129,350 129,257 Q129,166 171.5,112 Q214,58 287,58 Q361,58 404,112.5 Q447,167 447,262 Q447,355 404,408 Q361,461 286,461"/> 
            <glyph glyph-name="r" unicode="&#x72;" horiz-adv-x="333" d=" M333,528 L333,440 Q324,441 311,441 Q270,441 240,428.5 Q210,416 192.5,396 Q175,376 164,346 Q153,316 149.5,286 Q146,256 146,218 L146,0 L61,0 L61,516 L142,516 L142,405 Q193,528 333,528"/> 
            <glyph glyph-name="s" unicode="&#x73;" horiz-adv-x="468" d=" M447,366 L362,366 Q354,460 236,460 Q187,460 159,441 Q131,422 131,390 Q131,381 133,372.5 Q135,364 140.5,357.5 Q146,351 150.5,346 Q155,341 165.5,336.5 Q176,332 181.5,329 Q187,326 201.5,322.5 Q216,319 222,317.5 Q228,316 245.5,312 Q263,308 268,307 Q305,299 323.5,294 Q342,289 374.5,275.5 Q407,262 424,247.5 Q441,233 454.5,207.5 Q468,182 468,150 Q468,75 409.5,29.5 Q351,-16 254,-16 Q149,-16 92.5,30 Q36,76 32,163 L116,163 Q123,54 256,54 Q313,54 347.5,77.5 Q382,101 382,140 Q382,166 364,183 Q346,200 324,207.5 Q302,215 261,225 Q255,226 252,227 Q243,229 213.5,235.5 Q184,242 171,246 Q158,250 133.5,258.5 Q109,267 97,276.5 Q85,286 70.5,300.5 Q56,315 50,334.5 Q44,354 44,379 Q44,449 97.5,490 Q151,531 241,531 Q332,531 389.5,488 Q447,445 447,366"/> 
            <glyph glyph-name="t" unicode="&#x74;" horiz-adv-x="285" d=" M285,516 L285,446 L182,446 L182,145 Q182,120 182.5,112 Q183,104 188,90.5 Q193,77 205,73 Q217,69 239,69 Q258,69 285,72 L285,-1 Q249,-5 220,-5 Q184,-5 160,3 Q136,11 123.5,21 Q111,31 105,56.5 Q99,82 98,99.5 Q97,117 97,158 Q97,161 97,162.5 Q97,164 97,167 Q97,170 97,172 L97,446 L10,446 L10,516 L97,516 L97,669 L182,669 L182,516"/> 
            <glyph glyph-name="u" unicode="&#x75;" horiz-adv-x="492" d=" M492,516 L492,0 L413,0 L413,81 Q347,-14 235,-14 Q153,-14 108,31 Q63,76 63,161 L63,516 L148,516 L148,184 Q148,123 171.5,91.5 Q195,60 256,60 Q407,60 407,246 L407,516"/> 
            <glyph glyph-name="v" unicode="&#x76;" horiz-adv-x="486" d=" M14,516 L109,516 L255,83 L397,516 L486,516 L297,0 L206,0"/> 
            <glyph glyph-name="w" unicode="&#x77;" horiz-adv-x="741" d=" M17,516 L111,516 L229,91 L334,516 L427,516 L536,91 L653,516 L741,516 L576,0 L486,0 L380,408 L275,0 L183,0"/> 
            <glyph glyph-name="x" unicode="&#x78;" horiz-adv-x="509" d=" M488,516 L308,278 L509,0 L400,0 L255,212 L112,0 L9,0 L203,272 L24,516 L132,516 L257,339 L385,516"/> 
            <glyph glyph-name="y" unicode="&#x79;" horiz-adv-x="491" d=" M491,516 L270,-66 Q257,-101 247.5,-120.5 Q238,-140 220.5,-163.5 Q203,-187 178.5,-197.5 Q154,-208 121,-208 Q96,-208 58,-199 L58,-123 Q95,-134 113,-134 Q155,-134 173,-91 L213,3 L8,516 L104,516 L257,105 L402,516"/> 
            <glyph glyph-name="z" unicode="&#x7A;" horiz-adv-x="458" d=" M445,516 L445,460 L131,72 L458,72 L458,0 L22,0 L22,65 L330,446 L42,446 L42,516"/> 
            <glyph glyph-name="{" unicode="&#x7B;" horiz-adv-x="331" d=" M2,288 Q79,297 100,328 Q121,359 121,438 L121,486 Q121,605 166,660 Q211,715 331,723 L331,671 Q258,664 230,632 Q202,600 202,528 L202,464 Q202,421 198.5,393 Q195,365 183,336 Q171,307 144.5,290 Q118,273 76,267 Q111,262 135,249 Q159,236 172,220 Q185,204 192,176.5 Q199,149 200.5,127.5 Q202,106 202,70 L202,18 Q202,-62 228.5,-97 Q255,-132 331,-136 L331,-188 Q215,-181 168,-128 Q121,-75 121,39 L121,97 Q121,178 98.5,208.5 Q76,239 2,246"/> 
            <glyph glyph-name="|" unicode="&#x7C;" horiz-adv-x="144" d=" M78,-214 L78,786 L144,786 L144,-214"/> 
            <glyph glyph-name="}" unicode="&#x7D;" horiz-adv-x="331" d=" M331,246 Q257,239 234.5,208.5 Q212,178 212,97 L212,39 Q212,-75 165,-128 Q118,-181 2,-188 L2,-136 Q78,-132 104.5,-97 Q131,-62 131,18 L131,70 Q131,106 132.5,127.5 Q134,149 141,176.5 Q148,204 161,220 Q174,236 198,249 Q222,262 257,267 Q215,273 188.5,290 Q162,307 150,336 Q138,365 134.5,393 Q131,421 131,464 L131,528 Q131,600 103,632 Q75,664 2,671 L2,723 Q122,715 167,660 Q212,605 212,486 L212,438 Q212,359 233,328 Q254,297 331,288"/> 
            <glyph glyph-name="~" unicode="&#x7E;" horiz-adv-x="562" d=" M562,330 Q555,264 522.5,228.5 Q490,193 436,193 Q403,193 298,228 Q285,232 262.5,239.5 Q240,247 229.5,250.5 Q219,254 204.5,258.5 Q190,263 180,264.5 Q170,266 161,266 Q131,266 109.5,243.5 Q88,221 83,186 L38,186 Q43,245 74.5,285 Q106,325 163,325 Q179,325 201,320.5 Q223,316 237,311.5 Q251,307 278,298 Q305,289 313,286 Q319,284 341.5,276.5 Q364,269 377,264.5 Q390,260 409,256 Q428,252 441,252 Q473,252 493.5,274.5 Q514,297 519,330"/> 
            <glyph glyph-name="£" unicode="&#xA3;" horiz-adv-x="543" d=" M523,484 L436,484 Q432,557 396,600.5 Q360,644 288,644 Q227,644 187,607.5 Q147,571 147,515 Q147,495 152.5,474.5 Q158,454 163.5,442 Q169,430 182,406 Q195,382 200,373 L359,373 L359,330 L222,330 Q241,288 241,251 Q241,224 235,201 Q229,178 214,158 Q199,138 189,126 Q179,114 156.5,93.5 Q134,73 127,66 Q191,97 239,97 Q277,97 321,83 Q385,64 404,64 Q459,64 501,100 L543,34 Q519,10 479,-3.5 Q439,-17 402,-17 Q390,-17 379.5,-16 Q369,-15 355.5,-11 Q342,-7 337,-5.5 Q332,-4 313.5,2.5 Q295,9 292,10 Q235,29 197,29 Q167,29 145,19.5 Q123,10 93,-11 L47,60 Q95,92 125.5,137 Q156,182 156,233 Q156,280 130,330 L47,330 L47,373 L105,373 Q59,450 59,514 Q59,605 123,662.5 Q187,720 289,720 Q395,720 459,658.5 Q523,597 523,494"/> 
            <glyph glyph-name="¤" unicode="&#xA4;" horiz-adv-x="510" d=" M46,164 L110,228 Q67,283 67,356 Q67,432 110,484 L46,548 L86,588 L150,524 Q205,567 279,567 Q344,567 406,524 L470,588 L510,548 L446,484 Q489,434 489,356 Q489,288 446,229 L510,164 L470,124 L405,188 Q387,170 350,157.5 Q313,145 278,145 Q208,145 151,188 L86,124 M340,506 Q216,506 172,462 Q128,418 128,356 Q128,294 172,249.5 Q216,205 278,205 Q340,205 384.5,249.5 Q429,294 429,356 Q429,418 340,506"/> 
            <glyph glyph-name="¦" unicode="&#xA6;" horiz-adv-x="144" d=" M78,-89 L78,161 L144,161 L144,-89 M78,411 L78,661 L144,661 L144,411"/> 
            <glyph glyph-name="§" unicode="&#xA7;" horiz-adv-x="516" d=" M464,545 L380,545 Q371,651 277,651 Q235,651 208.5,629 Q182,607 182,571 Q182,561 184,552 Q186,543 191,534.5 Q196,526 200.5,519 Q205,512 216,503.5 Q227,495 234.5,489.5 Q242,484 258.5,474 Q275,464 285,458 Q295,452 317,439.5 Q339,427 353,419 Q439,370 468,341 Q516,293 516,231 Q516,130 412,82 Q468,35 468,-29 Q468,-102 416.5,-147.5 Q365,-193 282,-193 Q193,-193 140.5,-144 Q88,-95 84,-9 L169,-9 Q178,-122 285,-122 Q328,-122 355,-98.5 Q382,-75 382,-38 Q382,-24 376.5,-10.5 Q371,3 358.5,16 Q346,29 335.5,39 Q325,49 305,61.5 Q285,74 276,79.5 Q267,85 246,96.5 Q225,108 223,109 Q217,113 191,127 Q165,141 157,146 Q149,151 127.5,165.5 Q106,180 97.5,188.5 Q89,197 74,213 Q59,229 53,243 Q47,257 42,276.5 Q37,296 37,317 Q37,369 66,409.5 Q95,450 143,462 Q97,509 97,565 Q97,635 147.5,678.5 Q198,722 280,722 Q366,722 415,675 Q464,628 464,545 M189,419 Q117,386 117,325 Q117,316 119,308 Q121,300 123,293.5 Q125,287 130.5,279.5 Q136,272 139,267.5 Q142,263 150.5,256 Q159,249 162.5,246 Q166,243 176.5,236.5 Q187,230 189.5,228 Q192,226 203.5,219.5 Q215,213 217,212 Q330,145 362,124 Q396,137 415,162 Q434,187 434,216 Q434,237 426,253.5 Q418,270 397.5,287 Q377,304 369,309 Q361,314 333,331 Q201,409 189,419"/> 
            <glyph glyph-name="©" unicode="&#xA9;" horiz-adv-x="773" d=" M246,729 Q554,729 663.5,620 Q773,511 773,357 Q773,202 663.5,93 Q554,-16 400,-16 Q246,-16 136.5,93 Q27,202 27,357 Q27,511 246,729 M539,690 Q261,690 163.5,592.5 Q66,495 66,357 Q66,218 163.5,120.5 Q261,23 400,23 Q538,23 636,120.5 Q734,218 734,357 Q734,495 539,690 M581,282 Q573,219 524.5,180 Q476,141 407,141 Q316,141 262,199 Q208,257 208,355 Q208,453 262.5,515 Q317,577 403,577 Q474,577 524,534.5 Q574,492 579,428 L526,428 Q517,475 484.5,502 Q452,529 405,529 Q343,529 306,482 Q269,435 269,357 Q269,280 307.5,234 Q346,188 410,188 Q456,188 487.5,213 Q519,238 529,282"/> 
            <glyph glyph-name="«" unicode="&#xAB;" horiz-adv-x="399" d=" M399,427 L399,340 L299,264 L399,186 L399,101 L247,221 L247,308 M205,427 L205,342 L102,265 L205,187 L205,100 L50,223 L50,308"/> 
            <glyph glyph-name="¬" unicode="&#xAC;" horiz-adv-x="551" d=" M49,324 L49,384 L551,384 L551,133 L489,133 L489,324"/> 
            <glyph glyph-name="®" unicode="&#xAE;" horiz-adv-x="383" d=" M200,729 Q276,729 329.5,675 Q383,621 383,545 Q383,469 329.5,415.5 Q276,362 201,362 Q125,362 71.5,415.5 Q18,469 18,545 Q18,621 71.5,675 Q125,729 200,729 M200,700 Q137,700 91.5,654.5 Q46,609 46,545 Q46,481 91.5,435.5 Q137,390 201,390 Q264,390 309.5,435.5 Q355,481 355,545 Q355,609 309.5,654.5 Q264,700 200,700 M129,641 L198,641 Q284,641 284,586 Q284,553 249,540 Q281,526 281,480 Q281,465 287,453 L251,453 Q246,463 246,474 Q246,508 235.5,517 Q225,526 190,526 L163,526 L163,453 L129,453 M163,554 L197,554 Q249,554 249,584 Q249,594 244.5,600.5 Q240,607 230.5,609.5 Q221,612 214.5,612.5 Q208,613 196,613 L163,613"/> 
            <glyph glyph-name="°" unicode="&#xB0;" horiz-adv-x="351" d=" M137,710 Q263,710 307,665.5 Q351,621 351,559 Q351,496 307,451.5 Q263,407 200,407 Q137,407 93,451.5 Q49,496 49,559 Q49,621 137,710 M239,654 Q161,654 133,626 Q105,598 105,559 Q105,519 133,491.5 Q161,464 200,464 Q239,464 267,491.5 Q295,519 295,559 Q295,598 239,654"/> 
            <glyph glyph-name="±" unicode="&#xB1;" horiz-adv-x="551" d=" M267,93 L267,266 L49,266 L49,326 L267,326 L267,500 L333,500 L333,326 L551,326 L551,266 L333,266 L333,93 M49,-10 L49,50 L551,50 L551,-10"/> 
            <glyph glyph-name="µ" unicode="&#xB5;" horiz-adv-x="492" d=" M63,-199 L63,516 L148,516 L148,292 Q148,263 148,250 Q148,237 150.5,208 Q153,179 157,164 Q161,149 170,127.5 Q179,106 192,95.5 Q205,85 225,76.5 Q245,68 271,68 Q307,68 333.5,83 Q360,98 373.5,119.5 Q387,141 395,174.5 Q403,208 405,234.5 Q407,261 407,296 L407,516 L492,516 L492,0 L413,0 L413,80 Q381,32 350,10 Q319,-12 268,-12 Q223,-12 198.5,5 Q174,22 148,63 L148,-199"/> 
            <glyph glyph-name="¶" unicode="&#xB6;" horiz-adv-x="546" d=" M546,659 L492,659 L492,-176 L428,-176 L428,659 L306,659 L306,-176 L242,-176 L242,259 Q146,266 91.5,324 Q37,382 37,479 Q37,592 108.5,652 Q180,712 294,712 L546,712"/> 
            <glyph glyph-name="·" unicode="&#xB7;" horiz-adv-x="194" d=" M194,348 L194,237 L83,237 L83,348"/> 
            <glyph glyph-name="»" unicode="&#xBB;" horiz-adv-x="413" d=" M258,429 L413,305 L413,220 L258,101 L258,186 L360,262 L258,341 M63,427 L215,306 L215,221 L63,103 L63,188 L163,263 L63,341"/> 
            <glyph glyph-name="÷" unicode="&#xF7;" horiz-adv-x="551" d=" M49,221 L49,280 L551,280 L551,221 M252,24 L252,136 L348,136 L348,24 M252,376 L252,489 L348,489 L348,376"/> 
            <glyph glyph-name="ƒ" unicode="&#x192;" horiz-adv-x="492" d=" M428,447 L415,380 L312,380 L247,30 Q238,-21 227.5,-51.5 Q217,-82 197.5,-111.5 Q178,-141 145,-154 Q112,-167 63,-167 Q49,-167 5,-164 L18,-91 Q52,-93 55,-93 Q84,-93 102.5,-86 Q121,-79 131.5,-59.5 Q142,-40 146,-26 Q150,-12 157,24 L226,380 L134,380 L148,447 L239,447 L258,552 Q273,637 314,674.5 Q355,712 436,712 Q467,712 492,709 L477,636 Q447,639 435,639 Q395,639 374.5,618 Q354,597 344,547 L324,447"/> 
            <glyph glyph-name="Ё" unicode="&#x401;" horiz-adv-x="577" d=" M572,712 L572,630 L173,630 L173,407 L546,407 L546,328 L173,328 L173,82 L577,82 L577,0 L79,0 L79,712 M468,874 L468,773 L378,773 L378,874 M279,874 L279,773 L188,773 L188,874"/> 
            <glyph glyph-name="Ђ" unicode="&#x402;" horiz-adv-x="711" d=" M711,170 Q711,45 635.5,-45 Q560,-135 443,-135 L430,-135 L430,-54 Q520,-48 568,14 Q616,76 616,170 Q616,261 575,312 Q534,363 461,363 Q388,363 345.5,312 Q303,261 303,171 L303,0 L209,0 L209,630 L1,630 L1,712 L571,712 L571,630 L303,630 L303,360 L305,360 Q327,400 373,421 Q419,442 473,442 Q581,442 646,368 Q711,294 711,170"/> 
            <glyph glyph-name="Ѓ" unicode="&#x403;" horiz-adv-x="547" d=" M418,893 L298,751 L232,751 L313,893 M173,0 L79,0 L79,712 L547,712 L547,630 L173,630"/> 
            <glyph glyph-name="Є" unicode="&#x404;" horiz-adv-x="677" d=" M677,247 Q659,122 578.5,52.5 Q498,-17 371,-17 Q219,-17 130,83.5 Q41,184 41,355 Q41,515 130.5,621.5 Q220,728 378,728 Q489,728 574.5,669 Q660,610 672,505 L577,505 Q560,572 506.5,609.5 Q453,647 376,647 Q272,647 212.5,581.5 Q153,516 140,413 L482,413 L482,334 L136,334 Q142,208 205.5,136 Q269,64 375,64 Q460,64 513,111 Q566,158 582,247"/> 
            <glyph glyph-name="Ѕ" unicode="&#x405;" horiz-adv-x="611" d=" M583,503 L492,503 Q477,648 315,648 Q238,648 196,617 Q154,586 154,530 Q154,510 160,495 Q166,480 180.5,468.5 Q195,457 208,449 Q221,441 249,433 Q277,425 294,421.5 Q311,418 347,410 Q391,401 420,393.5 Q449,386 489,369 Q529,352 552.5,331.5 Q576,311 593.5,277 Q611,243 611,200 Q611,125 569,74.5 Q527,24 467,4 Q407,-16 334,-16 Q200,-16 119.5,47.5 Q39,111 39,235 L130,235 Q133,144 191,102.5 Q249,61 342,61 Q415,61 467,91.5 Q519,122 519,191 Q519,223 505,245.5 Q491,268 461,282.5 Q431,297 401,306 Q371,315 322,326 Q315,327 312,328 Q202,353 168,368 Q64,413 64,523 Q64,625 139.5,675.5 Q215,726 322,726 Q439,726 509,670 Q579,614 583,503"/> 
            <glyph glyph-name="І" unicode="&#x406;" horiz-adv-x="177" d=" M177,712 L177,0 L83,0 L83,712"/> 
            <glyph glyph-name="Ї" unicode="&#x407;" horiz-adv-x="270" d=" M177,712 L177,0 L83,0 L83,712 M270,874 L270,773 L180,773 L180,874 M81,874 L81,773 L-9,773 L-9,874"/> 
            <glyph glyph-name="Ј" unicode="&#x408;" horiz-adv-x="443" d=" M443,712 L443,219 Q443,165 433.5,125 Q424,85 402,51.5 Q380,18 339,0.5 Q298,-17 238,-17 Q125,-17 75,39 Q25,95 25,207 Q25,221 26,234 L117,234 L117,209 Q117,137 141.5,99 Q166,61 237,61 Q269,61 290.5,71 Q312,81 323.5,94.5 Q335,108 341,133 Q347,158 348,177 Q349,196 349,228 L349,712"/> 
            <glyph glyph-name="Љ" unicode="&#x409;" horiz-adv-x="962" d=" M962,314 Q962,112 904.5,56 Q847,0 743,0 L469,0 L469,630 L247,630 L233,229 Q229,117 187.5,51 Q146,-15 68,-15 Q32,-15 0,-1 L0,79 Q16,69 51,69 Q80,69 97.5,82.5 Q115,96 128.5,144 Q142,192 144,278 L157,712 L563,712 L563,424 L743,424 Q848,424 962,314 M867,213 Q867,342 711,342 L563,342 L563,82 L711,82 Q867,82 867,213"/> 
            <glyph glyph-name="Њ" unicode="&#x40A;" horiz-adv-x="962" d=" M475,344 L173,344 L173,0 L79,0 L79,714 L173,714 L173,424 L475,424 L475,714 L569,714 L569,424 L743,424 Q848,424 905,368.5 Q962,313 962,212 Q962,111 904.5,55.5 Q847,0 743,0 L475,0 M867,212 Q867,344 711,344 L569,344 L569,82 L711,82 Q867,82 867,212"/> 
            <glyph glyph-name="Ћ" unicode="&#x40B;" horiz-adv-x="702" d=" M303,0 L209,0 L209,630 L1,630 L1,712 L571,712 L571,630 L303,630 L303,412 L334,420 Q365,428 377.5,431 Q390,434 416,438 Q442,442 462,442 Q702,442 702,225 L702,0 L607,0 L607,217 Q607,240 606,254.5 Q605,269 597,291.5 Q589,314 575,326.5 Q561,339 532,349 Q503,359 462,359 Q441,359 421,357 Q401,355 382.5,351 Q364,347 353.5,344.5 Q343,342 324.5,336.5 Q306,331 303,330"/> 
            <glyph glyph-name="Ќ" unicode="&#x40C;" horiz-adv-x="669" d=" M657,712 L357,426 L669,0 L549,0 L291,362 L173,250 L173,0 L79,0 L79,712 L173,712 L173,359 L534,712 M458,893 L338,751 L272,751 L353,893"/> 
            <glyph glyph-name="Ў" unicode="&#x40E;" horiz-adv-x="615" d=" M462,899 Q452,836 413.5,798.5 Q375,761 312,761 Q251,761 209.5,799.5 Q168,838 160,899 L211,899 Q234,821 311,821 Q385,821 411,899 M259,186 L-1,712 L102,712 L310,278 L514,712 L615,712 L338,145 Q295,57 249.5,20 Q204,-17 149,-17 Q101,-17 61,1 L61,81 Q90,63 141,63 Q200,63 247,161"/> 
            <glyph glyph-name="Џ" unicode="&#x40F;" horiz-adv-x="643" d=" M409,0 L409,-177 L315,-177 L315,0 L79,0 L79,712 L173,712 L173,82 L549,82 L549,712 L643,712 L643,0"/> 
            <glyph glyph-name="А" unicode="&#x410;" horiz-adv-x="656" d=" M378,712 L656,0 L551,0 L472,218 L173,218 L92,0 L-8,0 L272,712 M444,293 L323,622 L200,293"/> 
            <glyph glyph-name="Б" unicode="&#x411;" horiz-adv-x="630" d=" M173,424 L411,424 Q516,424 573,368 Q630,312 630,211 Q630,111 572.5,55.5 Q515,0 411,0 L79,0 L79,712 L567,712 L567,630 L173,630 M536,211 Q536,342 380,342 L173,342 L173,82 L380,82 Q536,82 536,211"/> 
            <glyph glyph-name="В" unicode="&#x412;" horiz-adv-x="642" d=" M79,712 L383,712 Q481,712 545.5,669 Q610,626 610,534 Q610,481 581.5,439.5 Q553,398 505,381 Q571,366 606.5,319 Q642,272 642,201 Q642,0 372,0 L79,0 M171,632 L171,407 L340,407 Q369,407 389.5,408.5 Q410,410 436,416 Q462,422 477.5,433.5 Q493,445 504.5,467 Q516,489 516,520 Q516,551 506,572.5 Q496,594 482,605.5 Q468,617 443.5,623 Q419,629 399.5,630.5 Q380,632 349,632 M171,333 L171,79 L359,79 Q394,79 416,80.5 Q438,82 465.5,89 Q493,96 509,109.5 Q525,123 536,148.5 Q547,174 547,210 Q547,240 539.5,262 Q532,284 514.5,297 Q497,310 481.5,318 Q466,326 437,329 Q408,332 392,332.5 Q376,333 343,333"/> 
            <glyph glyph-name="Г" unicode="&#x413;" horiz-adv-x="547" d=" M173,0 L79,0 L79,712 L547,712 L547,630 L173,630"/> 
            <glyph glyph-name="Д" unicode="&#x414;" horiz-adv-x="706" d=" M706,-177 L615,-177 L615,0 L100,0 L100,-177 L9,-177 L9,82 L79,82 Q120,155 146,291.5 Q172,428 172,574 L172,712 L627,712 L627,82 L706,82 M533,82 L533,630 L264,630 L264,533 Q264,404 240.5,277.5 Q217,151 183,82"/> 
            <glyph glyph-name="Е" unicode="&#x415;" horiz-adv-x="577" d=" M572,712 L572,630 L173,630 L173,407 L546,407 L546,328 L173,328 L173,82 L577,82 L577,0 L79,0 L79,712"/> 
            <glyph glyph-name="Ж" unicode="&#x416;" horiz-adv-x="1008" d=" M1008,0 L890,0 L630,354 L546,266 L546,0 L454,0 L454,266 L370,354 L110,0 L-8,0 L308,420 L24,712 L142,712 L454,381 L454,712 L546,712 L546,381 L858,712 L976,712 L692,420"/> 
            <glyph glyph-name="З" unicode="&#x417;" horiz-adv-x="609" d=" M609,208 Q609,173 593,135.5 Q577,98 546,63 Q515,28 459,6 Q403,-16 332,-16 Q198,-16 117.5,47.5 Q37,111 37,235 L128,235 Q131,144 189,102.5 Q247,61 340,61 Q415,61 465,102 Q515,143 515,210 Q515,247 501,273 Q487,299 460,312 Q433,325 403.5,330 Q374,335 335,335 Q301,335 271,333 L271,411 Q287,409 335,409 Q490,409 490,537 Q490,651 337,651 Q175,651 160,506 L69,506 Q73,616 147,672.5 Q221,729 340,729 Q449,729 516.5,681 Q584,633 584,537 Q584,483 549,439.5 Q514,396 466,382 L466,379 Q534,366 571.5,318 Q609,270 609,208"/> 
            <glyph glyph-name="И" unicode="&#x418;" horiz-adv-x="643" d=" M79,0 L79,712 L173,712 L173,109 L175,109 L524,712 L643,712 L643,0 L549,0 L549,605 L547,605 L197,0"/> 
            <glyph glyph-name="Й" unicode="&#x419;" horiz-adv-x="643" d=" M511,899 Q501,836 462.5,798.5 Q424,761 361,761 Q300,761 258.5,799.5 Q217,838 209,899 L260,899 Q283,821 360,821 Q434,821 460,899 M79,0 L79,712 L173,712 L173,109 L175,109 L524,712 L643,712 L643,0 L549,0 L549,605 L547,605 L197,0"/> 
            <glyph glyph-name="К" unicode="&#x41A;" horiz-adv-x="669" d=" M657,712 L357,426 L669,0 L549,0 L291,362 L173,250 L173,0 L79,0 L79,712 L173,712 L173,359 L534,712"/> 
            <glyph glyph-name="Л" unicode="&#x41B;" horiz-adv-x="604" d=" M604,712 L604,0 L510,0 L510,630 L247,630 L233,229 Q229,117 187.5,51 Q146,-15 68,-15 Q36,-15 0,-1 L0,79 Q16,69 51,69 Q80,69 97.5,82.5 Q115,96 128.5,144 Q142,192 144,278 L157,712"/> 
            <glyph glyph-name="М" unicode="&#x41C;" horiz-adv-x="791" d=" M80,712 L210,712 L439,109 L660,712 L791,712 L791,0 L702,0 L702,594 L479,0 L397,0 L170,594 L170,0 L80,0"/> 
            <glyph glyph-name="Н" unicode="&#x41D;" horiz-adv-x="643" d=" M643,712 L643,0 L549,0 L549,333 L173,333 L173,0 L79,0 L79,712 L173,712 L173,415 L549,415 L549,712"/> 
            <glyph glyph-name="О" unicode="&#x41E;" horiz-adv-x="721" d=" M379,729 Q541,729 631,627.5 Q721,526 721,362 Q721,197 632,90 Q543,-17 380,-17 Q297,-17 231,13 Q165,43 123.5,96 Q82,149 60.5,217 Q39,285 39,364 Q39,531 131.5,630 Q224,729 379,729 M379,647 Q260,647 196.5,563.5 Q133,480 133,357 Q133,223 200.5,143.5 Q268,64 381,64 Q493,64 560,144 Q627,224 627,357 Q627,489 559.5,568 Q492,647 379,647"/> 
            <glyph glyph-name="П" unicode="&#x41F;" horiz-adv-x="643" d=" M643,712 L643,0 L549,0 L549,630 L173,630 L173,0 L79,0 L79,712"/> 
            <glyph glyph-name="Р" unicode="&#x420;" horiz-adv-x="613" d=" M83,712 L376,712 Q485,712 549,662.5 Q613,613 613,507 Q613,292 370,292 L177,292 L177,0 L83,0 M177,631 L177,371 L358,371 Q434,371 476.5,399.5 Q519,428 519,501 Q519,542 505.5,569 Q492,596 466,609 Q440,622 412,626.5 Q384,631 345,631"/> 
            <glyph glyph-name="С" unicode="&#x421;" horiz-adv-x="682" d=" M682,269 Q670,134 588.5,58.5 Q507,-17 374,-17 Q222,-17 133,83.5 Q44,184 44,355 Q44,515 133.5,621.5 Q223,728 381,728 Q494,728 580,667 Q666,606 676,498 L582,498 Q566,568 512,607.5 Q458,647 379,647 Q260,647 199.5,563 Q139,479 139,356 Q139,220 203,142 Q267,64 378,64 Q469,64 523,116.5 Q577,169 588,269"/> 
            <glyph glyph-name="Т" unicode="&#x422;" horiz-adv-x="573" d=" M573,712 L573,630 L334,630 L334,0 L240,0 L240,630 L1,630 L1,712"/> 
            <glyph glyph-name="У" unicode="&#x423;" horiz-adv-x="615" d=" M259,186 L-1,712 L102,712 L310,278 L514,712 L615,712 L338,145 Q295,57 249.5,20 Q204,-17 149,-17 Q101,-17 61,1 L61,81 Q90,63 141,63 Q200,63 247,161"/> 
            <glyph glyph-name="Ф" unicode="&#x424;" horiz-adv-x="746" d=" M746,359 Q746,227 656,156.5 Q566,86 435,86 L435,0 L341,0 L341,86 Q211,86 120.5,158 Q30,230 30,359 Q30,488 121,562.5 Q212,637 341,637 L341,712 L435,712 L435,637 Q566,637 656,563 Q746,489 746,359 M651,359 Q651,454 591.5,504.5 Q532,555 435,560 L435,163 Q534,170 592.5,217.5 Q651,265 651,359 M341,163 L341,560 Q244,555 184.5,504.5 Q125,454 125,359 Q125,265 183.5,217.5 Q242,170 341,163"/> 
            <glyph glyph-name="Х" unicode="&#x425;" horiz-adv-x="608" d=" M595,712 L358,367 L608,0 L494,0 L302,293 L103,0 L-5,0 L246,367 L11,712 L124,712 L303,438 L488,712"/> 
            <glyph glyph-name="Ц" unicode="&#x426;" horiz-adv-x="707" d=" M616,-177 L616,0 L73,0 L73,712 L167,712 L167,82 L535,82 L535,712 L629,712 L629,82 L707,82 L707,-177"/> 
            <glyph glyph-name="Ч" unicode="&#x427;" horiz-adv-x="589" d=" M589,0 L495,0 L495,317 Q386,292 297,292 Q235,292 187.5,307.5 Q140,323 114.5,345.5 Q89,368 73,399 Q57,430 52,455.5 Q47,481 47,509 L47,712 L141,712 L141,517 Q141,496 143.5,479.5 Q146,463 155,442.5 Q164,422 180,408 Q196,394 226,384.5 Q256,375 297,375 Q387,375 495,399 L495,712 L589,712"/> 
            <glyph glyph-name="Ш" unicode="&#x428;" horiz-adv-x="993" d=" M79,0 L79,712 L173,712 L173,82 L489,82 L489,712 L583,712 L583,82 L899,82 L899,712 L993,712 L993,0"/> 
            <glyph glyph-name="Щ" unicode="&#x429;" horiz-adv-x="1068" d=" M976,0 L73,0 L73,712 L167,712 L167,82 L483,82 L483,712 L577,712 L577,82 L893,82 L893,712 L987,712 L987,82 L1068,82 L1068,-177 L976,-177"/> 
            <glyph glyph-name="Ъ" unicode="&#x42A;" horiz-adv-x="765" d=" M234,630 L2,630 L2,712 L328,712 L328,424 L546,424 Q651,424 708,368 Q765,312 765,211 Q765,111 707.5,55.5 Q650,0 546,0 L234,0 M670,211 Q670,342 514,342 L328,342 L328,82 L514,82 Q670,82 670,211"/> 
            <glyph glyph-name="Ы" unicode="&#x42B;" horiz-adv-x="793" d=" M699,712 L793,712 L793,0 L699,0 M610,211 Q610,111 552.5,55.5 Q495,0 391,0 L79,0 L79,712 L173,712 L173,423 L391,423 Q496,423 553,367.5 Q610,312 610,211 M515,211 Q515,342 359,342 L173,342 L173,82 L359,82 Q515,82 515,211"/> 
            <glyph glyph-name="Ь" unicode="&#x42C;" horiz-adv-x="610" d=" M610,211 Q610,111 552.5,55.5 Q495,0 391,0 L79,0 L79,712 L173,712 L173,423 L391,423 Q496,423 553,367.5 Q610,312 610,211 M515,211 Q515,342 359,342 L173,342 L173,82 L359,82 Q515,82 515,211"/> 
            <glyph glyph-name="Э" unicode="&#x42D;" horiz-adv-x="678" d=" M678,355 Q678,187 585,85 Q492,-17 348,-17 Q221,-17 140.5,52.5 Q60,122 42,247 L137,247 Q153,158 206,111 Q259,64 344,64 Q446,64 511.5,136.5 Q577,209 583,334 L237,334 L237,413 L579,413 Q566,516 508,581.5 Q450,647 346,647 Q268,647 213.5,609 Q159,571 142,505 L47,505 Q55,575 100.5,627 Q146,679 209.5,703.5 Q273,728 344,728 Q505,728 591.5,622.5 Q678,517 678,355"/> 
            <glyph glyph-name="Ю" unicode="&#x42E;" horiz-adv-x="961" d=" M307,333 L173,333 L173,0 L79,0 L79,712 L173,712 L173,415 L309,415 Q323,560 409.5,644.5 Q496,729 633,729 Q788,729 874.5,627.5 Q961,526 961,362 Q961,197 875.5,90 Q790,-17 634,-17 Q485,-17 400.5,81.5 Q316,180 307,333 M867,357 Q867,489 803.5,568 Q740,647 633,647 Q521,647 461,563.5 Q401,480 401,357 Q401,224 464.5,144 Q528,64 635,64 Q740,64 803.5,144 Q867,224 867,357"/> 
            <glyph glyph-name="Я" unicode="&#x42F;" horiz-adv-x="588" d=" M347,304 L112,0 L-4,0 L234,307 Q149,318 103,369 Q57,420 57,508 Q57,607 116.5,659.5 Q176,712 282,712 L588,712 L588,0 L494,0 L494,304 M494,384 L494,632 L314,632 Q152,632 152,508 Q152,384 314,384"/> 
            <glyph glyph-name="а" unicode="&#x430;" horiz-adv-x="521" d=" M521,68 L521,2 Q495,-8 463,-8 Q390,-8 388,68 Q315,-14 201,-14 Q125,-14 80.5,25 Q36,64 36,132 Q36,270 219,293 Q231,295 254,297 Q341,307 361,320 Q384,336 384,375 Q384,460 267,460 Q207,460 176,435.5 Q145,411 139,355 L56,355 Q58,438 115,484 Q172,530 272,530 Q381,530 434,480 Q451,464 459,438 Q467,412 468,395.5 Q469,379 469,346 Q469,308 467,231 Q465,154 465,116 Q465,88 472.5,76.5 Q480,65 500,65 Q508,65 521,68 M384,268 Q375,261 365,256 Q355,251 339.5,248 Q324,245 318.5,243.5 Q313,242 292,239.5 Q271,237 270,237 Q239,233 229.5,231.5 Q220,230 193.5,223 Q167,216 156,207 Q145,198 134.5,180.5 Q124,163 124,139 Q124,99 151.5,76 Q179,53 227,53 Q288,53 336,89 Q384,125 384,174"/> 
            <glyph glyph-name="б" unicode="&#x431;" horiz-adv-x="537" d=" M112,588 Q146,641 194,666.5 Q242,692 316,697 Q399,703 417,713 Q429,719 435,729 L520,729 Q517,713 511.5,700 Q506,687 499.5,677.5 Q493,668 481.5,660 Q470,652 462,646.5 Q454,641 438.5,636.5 Q423,632 414,629.5 Q405,627 386.5,625 Q368,623 360,622 Q352,621 331,620 Q310,619 304,618 Q222,612 176,554.5 Q130,497 118,401 L121,401 Q143,454 191,486 Q239,518 302,518 Q412,518 474.5,448.5 Q537,379 537,254 Q537,125 473.5,54 Q410,-17 295,-17 Q201,-17 136,38.5 Q71,94 56,198 Q50,240 50,292 Q50,493 112,588 M137,251 Q137,163 179.5,109 Q222,55 296,55 Q368,55 409,107 Q450,159 450,252 Q450,343 408,395 Q366,447 294,447 Q222,447 179.5,394.5 Q137,342 137,251"/> 
            <glyph glyph-name="в" unicode="&#x432;" horiz-adv-x="500" d=" M62,0 L62,516 L301,516 Q352,516 388,507.5 Q424,499 451,470 Q478,441 478,391 Q478,315 402,280 L402,279 Q448,270 474,236.5 Q500,203 500,152 Q500,86 456,43 Q412,0 343,0 M292,308 Q345,308 367.5,325.5 Q390,343 390,377 Q390,411 368,427 Q346,443 292,443 L145,443 L145,308 M145,236 L145,73 L327,73 Q367,73 389.5,97 Q412,121 412,159 Q412,236 312,236"/> 
            <glyph glyph-name="г" unicode="&#x433;" horiz-adv-x="420" d=" M420,441 L151,441 L151,0 L66,0 L66,516 L420,516"/> 
            <glyph glyph-name="д" unicode="&#x434;" horiz-adv-x="564" d=" M564,-164 L483,-164 L483,0 L89,0 L89,-164 L8,-164 L8,75 L64,75 Q88,121 108.5,217.5 Q129,314 129,406 L129,516 L497,516 L497,75 L564,75 M412,75 L412,441 L212,441 L212,398 Q212,307 193.5,213.5 Q175,120 152,75"/> 
            <glyph glyph-name="е" unicode="&#x435;" horiz-adv-x="511" d=" M505,163 Q466,-17 280,-17 Q166,-17 101.5,54 Q37,125 37,251 Q37,376 103.5,453.5 Q170,531 277,531 Q396,531 453.5,450.5 Q511,370 511,247 L511,235 L123,235 L122,229 Q122,147 165,100 Q208,53 283,53 Q339,53 371.5,79 Q404,105 422,163 M423,304 Q417,378 378,419.5 Q339,461 275,461 Q213,461 172,419 Q131,377 123,304"/> 
            <glyph glyph-name="ж" unicode="&#x436;" horiz-adv-x="777" d=" M282,250 L105,0 L0,0 L226,304 L29,516 L134,516 L344,279 L346,279 L346,516 L431,516 L431,279 L433,279 L643,516 L748,516 L551,304 L777,0 L672,0 L495,250 L431,185 L431,0 L346,0 L346,185"/> 
            <glyph glyph-name="з" unicode="&#x437;" horiz-adv-x="464" d=" M35,367 Q41,455 102,493 Q163,531 253,531 Q338,531 392.5,496 Q447,461 447,392 Q447,350 422.5,320 Q398,290 364,283 L364,281 Q405,273 434.5,240.5 Q464,208 464,153 Q464,73 401,28.5 Q338,-16 250,-16 Q149,-16 89.5,30.5 Q30,77 26,161 L112,161 Q116,107 153,80 Q190,53 249,53 Q308,53 342,81.5 Q376,110 376,151 Q376,235 266,235 L195,235 L195,304 L252,304 Q301,304 331,324.5 Q361,345 361,388 Q361,418 331.5,440 Q302,462 252,462 Q201,462 163.5,439 Q126,416 121,367"/> 
            <glyph glyph-name="и" unicode="&#x438;" horiz-adv-x="492" d=" M173,0 L64,0 L64,516 L149,516 L149,95 L151,95 L383,516 L492,516 L492,0 L407,0 L407,421 L405,421"/> 
            <glyph glyph-name="й" unicode="&#x439;" horiz-adv-x="492" d=" M429,712 Q419,649 380.5,611.5 Q342,574 279,574 Q218,574 176.5,612.5 Q135,651 127,712 L178,712 Q201,634 278,634 Q352,634 378,712 M173,0 L64,0 L64,516 L149,516 L149,95 L151,95 L383,516 L492,516 L492,0 L407,0 L407,421 L405,421"/> 
            <glyph glyph-name="к" unicode="&#x43A;" horiz-adv-x="526" d=" M526,0 L418,0 L230,254 L149,175 L149,0 L64,0 L64,516 L149,516 L149,270 L385,516 L499,516 L291,313"/> 
            <glyph glyph-name="л" unicode="&#x43B;" horiz-adv-x="494" d=" M494,516 L494,0 L409,0 L409,441 L225,441 L218,213 Q215,95 175,42 Q135,-11 75,-11 Q38,-11 14,0 L14,69 Q27,62 59,62 Q89,62 110.5,94.5 Q132,127 134,204 L143,516"/> 
            <glyph glyph-name="м" unicode="&#x43C;" horiz-adv-x="623" d=" M623,0 L538,0 L538,407 L535,407 L382,0 L304,0 L151,407 L148,407 L148,0 L63,0 L63,516 L185,516 L342,98 L344,98 L501,516 L623,516"/> 
            <glyph glyph-name="н" unicode="&#x43D;" horiz-adv-x="492" d=" M149,0 L64,0 L64,516 L149,516 L149,311 L407,311 L407,516 L492,516 L492,0 L407,0 L407,236 L149,236"/> 
            <glyph glyph-name="о" unicode="&#x43E;" horiz-adv-x="537" d=" M173,531 Q407,531 472,460 Q537,389 537,261 Q537,130 472,57 Q407,-16 289,-16 Q171,-16 104,56 Q37,128 37,256 Q37,383 173,531 M363,460 Q213,460 169,405 Q125,350 125,258 Q125,163 168.5,109.5 Q212,56 290,56 Q365,56 407.5,110 Q450,164 450,259 Q450,351 363,460"/> 
            <glyph glyph-name="п" unicode="&#x43F;" horiz-adv-x="492" d=" M149,0 L64,0 L64,516 L492,516 L492,0 L407,0 L407,441 L149,441"/> 
            <glyph glyph-name="р" unicode="&#x440;" horiz-adv-x="553" d=" M144,516 L144,443 Q200,532 318,532 Q426,532 489.5,459 Q553,386 553,261 Q553,136 490.5,61.5 Q428,-13 322,-13 Q211,-13 149,72 L149,-199 L64,-199 L64,516 M305,461 Q231,461 188.5,407.5 Q146,354 146,260 Q146,166 189.5,112.5 Q233,59 308,59 Q381,59 423,113 Q465,167 465,260 Q465,354 422.5,407.5 Q380,461 305,461"/> 
            <glyph glyph-name="с" unicode="&#x441;" horiz-adv-x="508" d=" M508,188 Q497,95 437.5,40 Q378,-15 283,-15 Q166,-15 102,57.5 Q38,130 38,251 Q38,380 105,455.5 Q172,531 286,531 Q381,531 438,483.5 Q495,436 505,348 L417,348 Q394,460 287,460 Q213,460 170,405.5 Q127,351 127,258 Q127,164 168,110 Q209,56 281,56 Q339,56 375.5,90 Q412,124 422,188"/> 
            <glyph glyph-name="т" unicode="&#x442;" horiz-adv-x="459" d=" M459,441 L274,441 L274,0 L189,0 L189,441 L4,441 L4,516 L459,516"/> 
            <glyph glyph-name="у" unicode="&#x443;" horiz-adv-x="491" d=" M491,516 L270,-66 Q257,-101 247.5,-120.5 Q238,-140 220.5,-163.5 Q203,-187 178.5,-197.5 Q154,-208 121,-208 Q96,-208 58,-199 L58,-123 Q95,-134 113,-134 Q155,-134 173,-91 L213,3 L8,516 L104,516 L257,105 L402,516"/> 
            <glyph glyph-name="ф" unicode="&#x444;" horiz-adv-x="760" d=" M760,266 Q760,189 741,129 Q722,69 673.5,28.5 Q625,-12 552,-12 Q524,-12 492,4 Q460,20 444,39 L442,39 L442,-199 L358,-199 L358,39 L356,39 Q340,20 308,4 Q276,-12 248,-12 Q175,-12 126.5,28.5 Q78,69 59,129 Q40,189 40,266 Q40,388 94,458.5 Q148,529 241,529 Q273,529 306.5,511.5 Q340,494 355,473 L358,473 L358,712 L442,712 L442,473 L445,473 Q460,494 493.5,511.5 Q527,529 559,529 Q652,529 706,458.5 Q760,388 760,266 M672,264 Q672,353 641,405.5 Q610,458 547,458 Q514,458 483.5,441 Q453,424 442,386 L442,126 Q447,98 475.5,78.5 Q504,59 542,59 Q579,59 605.5,77 Q632,95 646,126.5 Q660,158 666,191.5 Q672,225 672,264 M358,126 L358,386 Q347,424 316.5,441 Q286,458 253,458 Q190,458 159,405.5 Q128,353 128,264 Q128,225 134,191.5 Q140,158 154,126.5 Q168,95 194.5,77 Q221,59 258,59 Q296,59 324.5,78.5 Q353,98 358,126"/> 
            <glyph glyph-name="х" unicode="&#x445;" horiz-adv-x="509" d=" M488,516 L308,278 L509,0 L400,0 L255,212 L112,0 L9,0 L203,272 L24,516 L132,516 L257,339 L385,516"/> 
            <glyph glyph-name="ц" unicode="&#x446;" horiz-adv-x="555" d=" M474,-164 L474,0 L64,0 L64,516 L149,516 L149,75 L403,75 L403,516 L488,516 L488,75 L555,75 L555,-164"/> 
            <glyph glyph-name="ч" unicode="&#x447;" horiz-adv-x="463" d=" M463,0 L378,0 L378,228 Q357,222 304.5,213.5 Q252,205 218,205 Q139,205 94.5,242.5 Q50,280 50,353 L50,516 L135,516 L135,367 Q135,277 234,277 Q305,277 378,300 L378,516 L463,516"/> 
            <glyph glyph-name="ш" unicode="&#x448;" horiz-adv-x="745" d=" M64,0 L64,516 L149,516 L149,75 L362,75 L362,516 L447,516 L447,75 L660,75 L660,516 L745,516 L745,0"/> 
            <glyph glyph-name="щ" unicode="&#x449;" horiz-adv-x="812" d=" M64,0 L64,516 L149,516 L149,75 L362,75 L362,516 L447,516 L447,75 L660,75 L660,516 L745,516 L745,75 L812,75 L812,-164 L731,-164 L731,0"/> 
            <glyph glyph-name="ъ" unicode="&#x44A;" horiz-adv-x="589" d=" M589,234 Q589,88 544.5,44 Q500,0 425,0 L152,0 L152,441 L3,441 L3,516 L237,516 L237,319 L421,319 Q497,319 589,234 M501,161 Q501,246 394,246 L237,246 L237,75 L394,75 Q446,75 473.5,97.5 Q501,120 501,161"/> 
            <glyph glyph-name="ы" unicode="&#x44B;" horiz-adv-x="641" d=" M556,516 L641,516 L641,0 L556,0 M474,234 Q474,88 429.5,44 Q385,0 310,0 L61,0 L61,516 L146,516 L146,319 L306,319 Q382,319 474,234 M279,246 L146,246 L146,75 L279,75 Q331,75 358.5,97.5 Q386,120 386,161 Q386,246 279,246"/> 
            <glyph glyph-name="ь" unicode="&#x44C;" horiz-adv-x="498" d=" M498,234 Q498,88 453.5,44 Q409,0 334,0 L61,0 L61,516 L146,516 L146,319 L330,319 Q406,319 498,234 M303,246 L146,246 L146,75 L303,75 Q355,75 382.5,97.5 Q410,120 410,161 Q410,246 303,246"/> 
            <glyph glyph-name="э" unicode="&#x44D;" horiz-adv-x="499" d=" M499,251 Q499,130 435,57.5 Q371,-15 254,-15 Q162,-15 103.5,36.5 Q45,88 31,176 L117,176 Q129,118 165,87 Q201,56 256,56 Q323,56 363.5,103.5 Q404,151 409,235 L193,235 L193,304 L407,304 Q396,377 355,418.5 Q314,460 250,460 Q153,460 125,366 L35,366 Q49,445 105.5,488 Q162,531 251,531 Q365,531 432,455.5 Q499,380 499,251"/> 
            <glyph glyph-name="ю" unicode="&#x44E;" horiz-adv-x="729" d=" M492,531 Q605,531 667,460 Q729,389 729,261 Q729,130 666.5,57 Q604,-16 491,-16 Q382,-16 318,50.5 Q254,117 249,236 L149,236 L149,0 L64,0 L64,516 L149,516 L149,311 L253,311 Q267,414 330,472.5 Q393,531 492,531 M560,460 Q420,460 378.5,405 Q337,350 337,258 Q337,163 378,109.5 Q419,56 492,56 Q562,56 602,110 Q642,164 642,259 Q642,351 560,460"/> 
            <glyph glyph-name="я" unicode="&#x44F;" horiz-adv-x="472" d=" M472,0 L387,0 L387,211 L274,211 L111,0 L-2,0 L176,214 Q119,223 83.5,262.5 Q48,302 48,364 Q48,436 91,476 Q134,516 210,516 L472,516 M387,441 L237,441 Q135,441 135,364 Q135,286 237,286 L387,286"/> 
            <glyph glyph-name="ё" unicode="&#x451;" horiz-adv-x="511" d=" M420,711 L420,610 L330,610 L330,711 M231,711 L231,610 L140,610 L140,711 M505,163 Q466,-17 280,-17 Q166,-17 101.5,54 Q37,125 37,251 Q37,376 103.5,453.5 Q170,531 277,531 Q396,531 453.5,450.5 Q511,370 511,247 L511,235 L123,235 L122,229 Q122,147 165,100 Q208,53 283,53 Q339,53 371.5,79 Q404,105 422,163 M423,304 Q417,378 378,419.5 Q339,461 275,461 Q213,461 172,419 Q131,377 123,304"/> 
            <glyph glyph-name="ђ" unicode="&#x452;" horiz-adv-x="512" d=" M512,86 Q512,-37 436.5,-115 Q361,-193 240,-198 L240,-119 Q326,-109 376.5,-53 Q427,3 427,95 L427,182 Q427,236 398,265.5 Q369,295 318,295 Q249,295 209,255 Q169,215 169,142 L169,0 L84,0 L84,441 L9,441 L9,516 L84,516 L84,712 L169,712 L169,516 L405,516 L405,441 L169,441 L169,278 L171,278 Q219,369 338,369 Q512,369 512,180"/> 
            <glyph glyph-name="ѓ" unicode="&#x453;" horiz-adv-x="420" d=" M319,732 L199,590 L133,590 L214,732 M420,441 L151,441 L151,0 L66,0 L66,516 L420,516"/> 
            <glyph glyph-name="є" unicode="&#x454;" horiz-adv-x="508" d=" M508,176 Q494,88 435,36.5 Q376,-15 285,-15 Q168,-15 104,57.5 Q40,130 40,251 Q40,380 107,455.5 Q174,531 288,531 Q377,531 433,488.5 Q489,446 504,366 L414,366 Q386,460 289,460 Q225,460 183.5,418.5 Q142,377 132,304 L350,304 L350,235 L129,235 Q134,151 175,103.5 Q216,56 283,56 Q338,56 374,87 Q410,118 422,176"/> 
            <glyph glyph-name="ѕ" unicode="&#x455;" horiz-adv-x="468" d=" M447,366 L362,366 Q354,460 236,460 Q187,460 159,441 Q131,422 131,390 Q131,381 133,372.5 Q135,364 140.5,357.5 Q146,351 150.5,346 Q155,341 165.5,336.5 Q176,332 181.5,329 Q187,326 201.5,322.5 Q216,319 222,317.5 Q228,316 245.5,312 Q263,308 268,307 Q305,299 323.5,294 Q342,289 374.5,275.5 Q407,262 424,247.5 Q441,233 454.5,207.5 Q468,182 468,150 Q468,75 409.5,29.5 Q351,-16 254,-16 Q149,-16 92.5,30 Q36,76 32,163 L116,163 Q123,54 256,54 Q313,54 347.5,77.5 Q382,101 382,140 Q382,166 364,183 Q346,200 324,207.5 Q302,215 261,225 Q255,226 252,227 Q243,229 213.5,235.5 Q184,242 171,246 Q158,250 133.5,258.5 Q109,267 97,276.5 Q85,286 70.5,300.5 Q56,315 50,334.5 Q44,354 44,379 Q44,449 97.5,490 Q151,531 241,531 Q332,531 389.5,488 Q447,445 447,366"/> 
            <glyph glyph-name="і" unicode="&#x456;" horiz-adv-x="154" d=" M154,712 L154,608 L68,608 L68,712 M154,516 L154,0 L68,0 L68,516"/> 
            <glyph glyph-name="ї" unicode="&#x457;" horiz-adv-x="250" d=" M154,516 L154,0 L68,0 L68,516 M250,712 L250,610 L161,610 L161,712 M61,712 L61,610 L-29,610 L-29,712"/> 
            <glyph glyph-name="ј" unicode="&#x458;" horiz-adv-x="156" d=" M156,516 L156,-57 Q156,-135 129,-171.5 Q102,-208 24,-208 Q8,-208 -15,-204 L-15,-133 Q11,-135 14,-135 Q35,-135 47,-131 Q59,-127 64,-114 Q69,-101 69.5,-91.5 Q70,-82 70,-55 L70,516 M156,712 L156,608 L70,608 L70,712"/> 
            <glyph glyph-name="љ" unicode="&#x459;" horiz-adv-x="756" d=" M756,235 Q756,87 714.5,43.5 Q673,0 598,0 L372,0 L372,441 L220,441 L213,213 Q210,95 170,42 Q130,-11 70,-11 Q33,-11 9,0 L9,69 Q22,62 54,62 Q84,62 105.5,94.5 Q127,127 129,204 L138,516 L457,516 L457,321 L598,321 Q673,321 756,235 M668,161 Q668,246 567,246 L457,246 L457,75 L567,75 Q668,75 668,161"/> 
            <glyph glyph-name="њ" unicode="&#x45A;" horiz-adv-x="756" d=" M367,246 L149,246 L149,0 L64,0 L64,516 L149,516 L149,321 L367,321 L367,516 L452,516 L452,321 L598,321 Q673,321 714.5,278 Q756,235 756,161 Q756,87 714.5,43.5 Q673,0 598,0 L367,0 M567,246 L452,246 L452,75 L567,75 Q668,75 668,161 Q668,246 567,246"/> 
            <glyph glyph-name="ћ" unicode="&#x45B;" horiz-adv-x="512" d=" M9,441 L9,516 L84,516 L84,712 L169,712 L169,516 L395,516 L395,441 L169,441 L169,281 L171,281 Q217,369 338,369 Q512,369 512,180 L512,0 L427,0 L427,190 Q427,239 398,266.5 Q369,294 318,294 Q249,294 209,254.5 Q169,215 169,142 L169,0 L84,0 L84,441"/> 
            <glyph glyph-name="ќ" unicode="&#x45C;" horiz-adv-x="526" d=" M379,732 L259,590 L193,590 L274,732 M526,0 L418,0 L230,254 L149,175 L149,0 L64,0 L64,516 L149,516 L149,270 L385,516 L499,516 L291,313"/> 
            <glyph glyph-name="ў" unicode="&#x45E;" horiz-adv-x="491" d=" M406,712 Q396,649 357.5,611.5 Q319,574 256,574 Q195,574 153.5,612.5 Q112,651 104,712 L155,712 Q178,634 255,634 Q329,634 355,712 M491,516 L270,-66 Q257,-101 247.5,-120.5 Q238,-140 220.5,-163.5 Q203,-187 178.5,-197.5 Q154,-208 121,-208 Q96,-208 58,-199 L58,-123 Q95,-134 113,-134 Q155,-134 173,-91 L213,3 L8,516 L104,516 L257,105 L402,516"/> 
            <glyph glyph-name="џ" unicode="&#x45F;" horiz-adv-x="492" d=" M320,0 L320,-164 L235,-164 L235,0 L64,0 L64,516 L149,516 L149,75 L407,75 L407,516 L492,516 L492,0"/> 
            <glyph glyph-name="Ґ" unicode="&#x490;" horiz-adv-x="547" d=" M547,873 L547,630 L173,630 L173,0 L79,0 L79,712 L452,712 L452,873"/> 
            <glyph glyph-name="ґ" unicode="&#x491;" horiz-adv-x="414" d=" M414,672 L414,441 L149,441 L149,0 L64,0 L64,516 L329,516 L329,672"/> 
            <glyph glyph-name="–" unicode="&#x2013;" horiz-adv-x="500" d=" M500,319 L500,237 L0,237 L0,319"/> 
            <glyph glyph-name="—" unicode="&#x2014;" horiz-adv-x="1000" d=" M1000,319 L1000,237 L0,237 L0,319"/> 
            <glyph glyph-name="‘" unicode="&#x2018;" horiz-adv-x="191" d=" M191,473 L78,473 L78,582 Q78,634 109,675 Q140,716 191,728 L191,678 Q136,660 134,580 L191,580"/> 
            <glyph glyph-name="’" unicode="&#x2019;" horiz-adv-x="199" d=" M199,712 L199,603 Q199,551 168,510 Q137,469 86,457 L86,507 Q141,525 143,605 L86,605 L86,712"/> 
            <glyph glyph-name="‚" unicode="&#x201A;" horiz-adv-x="191" d=" M191,103 L191,22 Q191,-115 83,-146 L83,-98 Q135,-76 138,0 L83,0 L83,103"/> 
            <glyph glyph-name="“" unicode="&#x201C;" horiz-adv-x="357" d=" M357,478 L249,478 L249,559 Q249,696 357,727 L357,679 Q305,657 302,581 L357,581 M175,478 L67,478 L67,559 Q67,696 175,727 L175,679 Q123,657 120,581 L175,581"/> 
            <glyph glyph-name="”" unicode="&#x201D;" horiz-adv-x="358" d=" M358,712 L358,631 Q358,494 250,463 L250,511 Q302,533 305,609 L250,609 L250,712 M176,712 L176,631 Q176,494 68,463 L68,511 Q120,533 123,609 L68,609 L68,712"/> 
            <glyph glyph-name="„" unicode="&#x201E;" horiz-adv-x="359" d=" M359,103 L359,22 Q359,-115 251,-146 L251,-98 Q303,-76 306,0 L251,0 L251,103 M177,103 L177,22 Q177,-115 69,-146 L69,-98 Q121,-76 124,0 L69,0 L69,103"/> 
            <glyph glyph-name="†" unicode="&#x2020;" horiz-adv-x="514" d=" M514,506 L514,432 L317,432 L317,-156 L236,-156 L236,432 L42,432 L42,506 L236,506 L236,712 L317,712 L317,506"/> 
            <glyph glyph-name="‡" unicode="&#x2021;" horiz-adv-x="514" d=" M514,513 L514,439 L317,439 L317,116 L514,116 L514,42 L317,42 L317,-155 L236,-155 L236,42 L42,42 L42,116 L236,116 L236,439 L42,439 L42,513 L236,513 L236,712 L317,712 L317,513"/> 
            <glyph glyph-name="•" unicode="&#x2022;" horiz-adv-x="428" d=" M176,534 Q324,534 376,482 Q428,430 428,356 Q428,282 376,230 Q324,178 250,178 Q176,178 124,230 Q72,282 72,356 Q72,430 176,534"/> 
            <glyph glyph-name="…" unicode="&#x2026;" horiz-adv-x="874" d=" M126,0 L126,107 L208,107 L208,0 M459,0 L459,107 L541,107 L541,0 M792,0 L792,107 L874,107 L874,0"/> 
            <glyph glyph-name="‰" unicode="&#x2030;" horiz-adv-x="1064" d=" M658,731 L187,-35 L124,-35 L598,731 M160,709 Q302,709 339.5,666.5 Q377,624 377,542 Q377,459 338.5,414.5 Q300,370 229,370 Q84,370 84,539 Q84,621 160,709 M303,655 Q157,655 157,536 Q157,425 230,425 Q303,425 303,538 M501,328 Q643,328 680.5,285.5 Q718,243 718,161 Q718,78 679.5,33.5 Q641,-11 570,-11 Q425,-11 425,158 Q425,240 501,328 M644,274 Q498,274 498,155 Q498,44 571,44 Q644,44 644,157 M847,328 Q989,328 1026.5,285.5 Q1064,243 1064,161 Q1064,78 1025.5,33.5 Q987,-11 916,-11 Q771,-11 771,158 Q771,240 847,328 M990,274 Q844,274 844,155 Q844,44 917,44 Q990,44 990,157"/> 
            <glyph glyph-name="‹" unicode="&#x2039;" horiz-adv-x="194" d=" M194,426 L194,340 L93,265 L194,186 L194,100 L42,221 L42,308"/> 
            <glyph glyph-name="›" unicode="&#x203A;" horiz-adv-x="217" d=" M65,427 L217,307 L217,219 L65,102 L65,188 L166,263 L65,341"/> 
            <glyph glyph-name="№" unicode="&#x2116;" horiz-adv-x="946" d=" M946,274 Q946,207 907.5,169.5 Q869,132 801,132 Q732,132 692,170.5 Q652,209 652,275 Q652,341 691.5,381 Q731,421 796,421 Q866,421 906,382 Q946,343 946,274 M944,0 L664,0 L664,63 L944,63 M590,0 L486,0 L169,555 L167,555 L167,0 L77,0 L77,696 L178,696 L498,135 L500,135 L500,696 L590,696 M873,277 Q873,321 853.5,343.5 Q834,366 801,366 Q765,366 745,343.5 Q725,321 725,276 Q725,187 800,187 Q873,187 873,277"/> 
            <glyph glyph-name="™" unicode="&#x2122;" horiz-adv-x="827" d=" M234,356 L234,670 L112,670 L112,712 L405,712 L405,670 L283,670 L283,356 M469,356 L469,712 L542,712 L649,428 L756,712 L827,712 L827,356 L783,356 L783,665 L668,356 L628,356 L513,665 L513,356"/> 
            <glyph glyph-name="∆" unicode="&#x2206;" horiz-adv-x="656" d=" M369,712 L656,0 L14,0 L296,712 M106,61 L560,61 L331,646"/> 
            <glyph glyph-name="√" unicode="&#x221A;" horiz-adv-x="546" d=" M546,786 L336,-214 L270,-214 L106,126 L60,104 L36,154 L136,202 L295,-130 L483,786"/> 
            <glyph glyph-name="∞" unicode="&#x221E;" horiz-adv-x="700" d=" M371,282 Q401,312 412.5,323 Q424,334 452,356 Q480,378 505.5,387 Q531,396 558,396 Q620,396 660,354.5 Q700,313 700,249 Q700,183 661,142 Q622,101 560,101 Q516,101 474,124.5 Q432,148 371,208 Q369,206 351,190 Q333,174 329,170.5 Q325,167 308.5,153.5 Q292,140 284.5,136 Q277,132 261.5,123 Q246,114 235.5,110.5 Q225,107 210,104 Q195,101 181,101 Q119,101 80,141.5 Q41,182 41,246 Q41,311 80,353 Q119,395 179,395 Q214,395 252.5,375 Q291,355 314.5,335 Q338,315 371,282 M409,245 Q436,220 454.5,204.5 Q473,189 503.5,174 Q534,159 562,159 Q599,159 621,183 Q643,207 643,246 Q643,288 620,313 Q597,338 559,338 Q533,338 501.5,320 Q470,302 454.5,288 Q439,274 409,245 M333,246 Q324,253 299.5,273 Q275,293 260,304.5 Q245,316 222,326.5 Q199,337 178,337 Q143,337 120,311 Q97,285 97,246 Q97,206 120.5,182.5 Q144,159 182,159 Q246,159 333,246"/> 
            <glyph glyph-name="≈" unicode="&#x2248;" horiz-adv-x="562" d=" M562,412 Q555,346 522.5,310.5 Q490,275 436,275 Q403,275 298,310 Q285,314 262.5,321.5 Q240,329 229.5,332.5 Q219,336 204.5,340.5 Q190,345 180,346.5 Q170,348 161,348 Q131,348 109.5,325.5 Q88,303 83,268 L38,268 Q43,327 74.5,367 Q106,407 163,407 Q179,407 201,402.5 Q223,398 237,393.5 Q251,389 278,380 Q305,371 313,368 Q319,366 341.5,358.5 Q364,351 377,346.5 Q390,342 409,338 Q428,334 441,334 Q473,334 493.5,356.5 Q514,379 519,412 M562,242 Q555,176 522.5,140.5 Q490,105 436,105 Q403,105 298,140 Q285,144 262.5,151.5 Q240,159 229.5,162.5 Q219,166 204.5,170.5 Q190,175 180,176.5 Q170,178 161,178 Q131,178 109.5,155.5 Q88,133 83,98 L38,98 Q43,157 74.5,197 Q106,237 163,237 Q179,237 201,232.5 Q223,228 237,223.5 Q251,219 278,210 Q305,201 313,198 Q319,196 341.5,188.5 Q364,181 377,176.5 Q390,172 409,168 Q428,164 441,164 Q473,164 493.5,186.5 Q514,209 519,242"/> 
            <glyph glyph-name="≠" unicode="&#x2260;" horiz-adv-x="551" d=" M230,193 L298,324 L49,324 L49,384 L331,384 L408,531 L460,503 L396,384 L551,384 L551,324 L365,324 L296,193 L551,193 L551,134 L264,134 L188,-10 L136,18 L198,134 L49,134 L49,193"/> 
            <glyph glyph-name="≤" unicode="&#x2264;" horiz-adv-x="551" d=" M49,263 L49,328 L551,517 L551,452 L132,295 L551,140 L551,75 M49,32 L551,32 L551,-27 L49,-27"/> 
            <glyph glyph-name="≥" unicode="&#x2265;" horiz-adv-x="551" d=" M551,263 L49,75 L49,140 L469,295 L49,452 L49,517 L551,328 M551,32 L551,-27 L49,-27 L49,32"/> 
            <glyph glyph-name="" unicode="&#xE000;" horiz-adv-x="340" d=" M340,320 L340,236 L49,236 L49,320"/> 
            <glyph glyph-name=" " unicode="&#x20;" horiz-adv-x="182" d=" M177,712 L177,494 L152,177 L106,177 L83,494 L83,712 M182,101 L182,0 L77,0 L77,101"/> 
            <glyph glyph-name="!" unicode="&#x21;" horiz-adv-x="323" d=" M159,418 L113,418 L103,696 L168,696 M314,418 L267,418 L258,696 L323,696"/> 
            <glyph glyph-name="&quot;" unicode="&#x22;" horiz-adv-x="542" d=" M147,0 L82,0 L122,211 L14,211 L14,267 L132,267 L164,431 L56,431 L55,486 L174,486 L214,696 L279,696 L239,486 L369,486 L410,696 L474,696 L434,486 L542,486 L542,431 L424,431 L392,267 L500,267 L501,211 L382,211 L342,0 L278,0 L317,211 L187,211 M328,267 L359,431 L228,431 L197,267"/> 
            <glyph glyph-name="#" unicode="&#x23;" horiz-adv-x="519" d=" M298,788 L298,719 Q499,716 502,527 L418,527 L418,533 Q418,640 298,649 L298,401 Q343,388 366.5,380 Q390,372 424.5,355 Q459,338 476,318.5 Q493,299 506,267 Q519,235 519,193 Q519,101 461,46 Q403,-9 298,-16 L298,-99 L251,-99 L251,-16 Q150,-11 90.5,44.5 Q31,100 31,203 L31,213 L116,213 Q115,207 115,200 Q115,67 251,55 L251,330 Q153,349 99,393.5 Q45,438 45,522 Q45,611 102,660.5 Q159,710 251,719 L251,788 M251,410 L251,647 Q194,642 161,610.5 Q128,579 128,529 Q128,477 161,450 Q194,423 251,410 M298,319 L298,54 Q358,56 396,94 Q434,132 434,191 Q434,290 298,319"/> 
            <glyph glyph-name="$" unicode="&#x24;" horiz-adv-x="913" d=" M727,731 L328,-34 L260,-34 L661,731 M258,711 Q334,711 374.5,662 Q415,613 415,520 Q415,418 374,364 Q333,310 254,310 Q93,310 93,512 Q93,607 136,659 Q179,711 258,711 M340,653 Q168,653 168,507 Q168,367 254,367 Q340,367 340,516 M756,386 Q832,386 872.5,337 Q913,288 913,195 Q913,93 872,39 Q831,-15 752,-15 Q591,-15 591,187 Q591,282 634,334 Q677,386 756,386 M838,328 Q666,328 666,182 Q666,42 752,42 Q838,42 838,191"/> 
            <glyph glyph-name="%" unicode="&#x25;" horiz-adv-x="644" d=" M555,337 Q550,236 506,161 L644,0 L534,0 L458,90 Q384,-15 250,-15 Q158,-15 95.5,39.5 Q33,94 33,186 Q33,256 81,312.5 Q129,369 200,400 Q123,494 123,565 Q123,632 169.5,674 Q216,716 289,716 Q361,716 406.5,674.5 Q452,633 452,568 Q452,452 321,383 L451,224 Q471,273 474,337 M276,438 Q370,494 370,561 Q370,598 346.5,622 Q323,646 288,646 Q253,646 229,623.5 Q205,601 205,568 Q205,561 206.5,553 Q208,545 211,537 Q214,529 217,522.5 Q220,516 226,506.5 Q232,497 235,492 Q238,487 245.5,476.5 Q253,466 255.5,463 Q258,460 266.5,449.5 Q275,439 276,438 M246,345 Q122,282 122,190 Q122,135 162,96.5 Q202,58 259,58 Q353,58 410,147"/> 
            <glyph glyph-name="&amp;" unicode="&#x26;" horiz-adv-x="171" d=" M162,418 L116,418 L106,696 L171,696"/> 
            <glyph glyph-name="'" unicode="&#x27;" horiz-adv-x="269" d=" M269,725 Q136,520 136,264 Q136,20 269,-190 L204,-190 Q123,-64 85.5,37.5 Q48,139 48,263 Q48,516 204,725"/> 
            <glyph glyph-name="(" unicode="&#x28;" horiz-adv-x="209" d=" M209,263 Q209,139 171.5,37.5 Q134,-64 53,-190 L-12,-190 Q121,20 121,264 Q121,520 -12,725 L53,725 Q209,516 209,263"/> 
            <glyph glyph-name=")" unicode="&#x29;" horiz-adv-x="328" d=" M328,601 L219,563 L285,473 L244,443 L175,537 L109,443 L65,473 L130,563 L24,601 L41,650 L148,610 L148,723 L202,723 L202,610 L308,650"/> 
            <glyph glyph-name="*" unicode="&#x2A;" horiz-adv-x="551" d=" M267,0 L267,221 L49,221 L49,280 L267,280 L267,501 L333,501 L333,280 L551,280 L551,221 L333,221 L333,0"/> 
            <glyph glyph-name="+" unicode="&#x2B;" horiz-adv-x="194" d=" M194,111 L194,43 Q194,5 190.5,-21.5 Q187,-48 176,-75 Q165,-102 142,-120.5 Q119,-139 83,-148 L83,-98 Q137,-80 138,0 L83,0 L83,111"/> 
            <glyph glyph-name="," unicode="&#x2C;" horiz-adv-x="340" d=" M340,320 L340,236 L49,236 L49,320"/> 
            <glyph glyph-name="-" unicode="&#x2D;" horiz-adv-x="194" d=" M194,111 L194,0 L83,0 L83,111"/> 
            <glyph glyph-name="." unicode="&#x2E;" horiz-adv-x="351" d=" M351,729 L54,-17 L-18,-17 L281,729"/> 
            <glyph glyph-name="/" unicode="&#x2F;" horiz-adv-x="514" d=" M277,709 Q341,709 386.5,685.5 Q432,662 456,628 Q480,594 494,539.5 Q508,485 511,441.5 Q514,398 514,337 Q514,281 509.5,236 Q505,191 490.5,142 Q476,93 451,60.5 Q426,28 383,7 Q340,-14 281,-14 Q219,-14 173.5,7.5 Q128,29 103,61 Q78,93 63.5,142.5 Q49,192 45,236.5 Q41,281 41,339 Q41,389 43.5,426 Q46,463 53.5,509.5 Q61,556 77,588.5 Q93,621 118,650 Q143,679 183.5,694 Q224,709 277,709 M308,633 Q246,633 222,621.5 Q198,610 183,595 Q168,580 157,550.5 Q146,521 141.5,501 Q137,481 134,443.5 Q131,406 131,390.5 Q131,375 131,339 Q131,304 132,281 Q133,258 137,221 Q141,184 151,159.5 Q161,135 176,110.5 Q191,86 217.5,73.5 Q244,61 279,61 Q309,61 332.5,72 Q356,83 371,98 Q386,113 396.5,140.5 Q407,168 412,188.5 Q417,209 419.5,243.5 Q422,278 422.5,294.5 Q423,311 423,343 Q423,378 423,393 Q423,408 420,445 Q417,482 412.5,502 Q408,522 397,551 Q386,580 371,595 Q356,610 308,633"/> 
            <glyph glyph-name="0" unicode="&#x30;" horiz-adv-x="358" d=" M358,708 L358,0 L265,0 L265,513 L87,513 L87,577 Q173,577 223.5,605 Q274,633 291,708"/> 
            <glyph glyph-name="1" unicode="&#x31;" horiz-adv-x="493" d=" M487,77 L487,0 L25,0 Q28,59 43,103 Q58,147 89.5,182.5 Q121,218 151,241 Q181,264 236,298 Q322,352 349,379 Q405,434 405,501 Q405,560 367,597.5 Q329,635 268,635 Q195,635 163.5,584.5 Q132,534 130,457 L44,457 L44,476 Q44,581 106.5,645 Q169,709 272,709 Q373,709 433,653 Q493,597 493,503 Q493,463 479.5,427.5 Q466,392 449.5,368 Q433,344 399.5,317 Q366,290 344,275.5 Q322,261 281,236 Q199,187 172,160 Q134,122 123,77"/> 
            <glyph glyph-name="2" unicode="&#x32;" horiz-adv-x="513" d=" M46,479 Q49,589 107.5,649 Q166,709 271,709 Q365,709 422,658 Q479,607 479,524 Q479,474 453.5,434.5 Q428,395 382,376 Q442,362 477,316 Q512,270 512,205 Q513,107 444.5,46.5 Q376,-14 267,-14 Q159,-14 94.5,45.5 Q30,105 30,206 L30,219 L114,219 Q117,143 157,102 Q197,61 268,61 Q336,61 378.5,99.5 Q421,138 421,199 Q421,261 378.5,298 Q336,335 264,335 Q246,335 218,331 L218,403 Q232,402 247,402 Q313,402 351.5,433.5 Q390,465 390,519 Q390,571 356.5,603 Q323,635 267,635 Q203,635 167,594.5 Q131,554 129,479"/> 
            <glyph glyph-name="3" unicode="&#x33;" horiz-adv-x="515" d=" M515,243 L515,171 L419,171 L419,0 L339,0 L339,171 L28,171 L28,251 L350,709 L419,709 L419,243 M339,243 L339,584 L103,243"/> 
            <glyph glyph-name="4" unicode="&#x34;" horiz-adv-x="509" d=" M471,696 L471,621 L184,621 L142,410 Q194,466 285,466 Q385,466 447,401.5 Q509,337 509,234 Q509,126 441,56 Q373,-14 264,-14 Q163,-14 100.5,42 Q38,98 35,191 L121,191 Q126,132 166,95 Q206,58 265,58 Q331,58 375,106 Q419,154 419,225 Q419,299 376,345.5 Q333,392 264,392 Q176,392 128,323 L55,328 L121,696"/> 
            <glyph glyph-name="5" unicode="&#x35;" horiz-adv-x="519" d=" M500,525 L413,525 Q406,576 375.5,605.5 Q345,635 293,635 Q257,635 228.5,622 Q200,609 182.5,584.5 Q165,560 153,535 Q141,510 135,474 Q129,438 127,415.5 Q125,393 123,361 Q181,454 299,454 Q398,454 458.5,391.5 Q519,329 519,227 Q519,122 455.5,54 Q392,-14 286,-14 Q39,-14 39,338 Q39,393 45.5,442 Q52,491 69.5,541.5 Q87,592 115,628 Q143,664 189.5,686.5 Q236,709 296,709 Q385,709 439,660.5 Q493,612 500,525 M284,380 Q219,380 179,336.5 Q139,293 139,223 Q139,150 179.5,106 Q220,62 286,62 Q350,62 389.5,104.5 Q429,147 429,219 Q429,293 390,336.5 Q351,380 284,380"/> 
            <glyph glyph-name="6" unicode="&#x36;" horiz-adv-x="504" d=" M504,696 L504,623 Q272,358 233,0 L139,0 Q151,164 225.5,325 Q300,486 417,615 L46,615 L46,696"/> 
            <glyph glyph-name="7" unicode="&#x37;" horiz-adv-x="515" d=" M165,379 Q118,399 92.5,437.5 Q67,476 67,528 Q67,608 126,658.5 Q185,709 278,709 Q370,709 428.5,659.5 Q487,610 487,532 Q487,424 390,379 Q515,335 515,206 Q515,105 450,45.5 Q385,-14 275,-14 Q169,-14 104.5,44.5 Q40,103 40,200 Q40,264 72.5,310.5 Q105,357 165,379 M334,633 Q222,633 188,602.5 Q154,572 154,522 Q154,472 188,441.5 Q222,411 278,411 Q333,411 366.5,441.5 Q400,472 400,522 Q400,573 334,633 M275,342 Q211,342 170,302.5 Q129,263 129,202 Q129,139 170.5,98.5 Q212,58 277,58 Q343,58 384.5,98 Q426,138 426,201 Q426,264 384,303 Q342,342 275,342"/> 
            <glyph glyph-name="8" unicode="&#x38;" horiz-adv-x="512" d=" M50,171 L134,171 Q141,119 175.5,89.5 Q210,60 264,60 Q403,60 422,291 Q424,312 424,338 Q364,241 251,241 Q154,241 94,304.5 Q34,368 34,471 Q34,577 99,643 Q164,709 268,709 Q512,709 512,363 Q512,310 505.5,261.5 Q499,213 482,161.5 Q465,110 438,72 Q411,34 365.5,10 Q320,-14 261,-14 Q171,-14 113.5,35 Q56,84 50,171 M264,633 Q201,633 162.5,589.5 Q124,546 124,474 Q124,406 160.5,361.5 Q197,317 264,317 Q329,317 369,359.5 Q409,402 409,472 Q409,545 369,589 Q329,633 264,633"/> 
            <glyph glyph-name="9" unicode="&#x39;" horiz-adv-x="194" d=" M194,111 L194,0 L83,0 L83,111 M194,516 L194,405 L83,405 L83,516"/> 
            <glyph glyph-name=":" unicode="&#x3A;" horiz-adv-x="194" d=" M194,111 L194,43 Q194,5 190.5,-21.5 Q187,-48 176,-75 Q165,-102 142,-120.5 Q119,-139 83,-148 L83,-98 Q137,-80 138,0 L83,0 L83,111 M194,516 L194,405 L83,405 L83,516"/> 
            <glyph glyph-name=";" unicode="&#x3B;" horiz-adv-x="551" d=" M49,223 L49,288 L551,488 L551,421 L128,255 L551,91 L551,24"/> 
            <glyph glyph-name="&lt;" unicode="&#x3C;" horiz-adv-x="551" d=" M49,324 L49,384 L551,384 L551,324 M49,134 L49,193 L551,193 L551,134"/> 
            <glyph glyph-name="=" unicode="&#x3D;" horiz-adv-x="551" d=" M551,223 L49,24 L49,91 L472,255 L49,421 L49,488 L551,288"/> 
            <glyph glyph-name="&gt;" unicode="&#x3E;" horiz-adv-x="491" d=" M55,489 Q55,593 112.5,659 Q170,725 280,725 Q376,725 433.5,673 Q491,621 491,533 Q491,480 472,441.5 Q453,403 413,366 Q408,361 387.5,342.5 Q367,324 364,320 Q361,316 347.5,301 Q334,286 332,277.5 Q330,269 324,252 Q318,235 317,216.5 Q316,198 316,173 L234,173 L234,179 Q234,224 238.5,253 Q243,282 259.5,309.5 Q276,337 290.5,353 Q305,369 344,408 Q376,440 388.5,465.5 Q401,491 401,523 Q401,581 368,615 Q335,649 279,649 Q148,649 139,489 M326,101 L326,0 L221,0 L221,101"/> 
            <glyph glyph-name="?" unicode="&#x3F;" horiz-adv-x="769" d=" M701,119 L722,90 Q645,33 574,8 Q503,-17 418,-17 Q255,-17 143,83 Q31,183 31,345 Q31,508 147,618.5 Q263,729 435,729 Q582,729 675.5,646 Q769,563 769,431 Q769,325 708,246.5 Q647,168 566,168 Q531,168 509.5,188 Q488,208 488,239 Q488,252 493,272 Q442,168 350,168 Q290,168 253,209.5 Q216,251 216,318 Q216,416 275.5,488.5 Q335,561 414,561 Q513,561 534,471 L555,546 L613,546 L554,347 Q534,278 534,253 Q534,233 546.5,221.5 Q559,210 581,210 Q638,210 683.5,278.5 Q729,347 729,433 Q729,548 647,619 Q565,690 434,690 Q279,690 175,591 Q71,492 71,344 Q71,199 172,110.5 Q273,22 420,22 Q499,22 564.5,46 Q630,70 701,119 M507,430 Q507,470 485,495 Q463,520 426,520 Q365,520 324.5,451.5 Q284,383 284,317 Q284,268 306,239 Q328,210 366,210 Q428,210 467.5,286 Q507,362 507,430"/> 
            <glyph glyph-name="@" unicode="&#x40;" horiz-adv-x="656" d=" M378,712 L656,0 L551,0 L472,218 L173,218 L92,0 L-8,0 L272,712 M444,293 L323,622 L200,293"/> 
            <glyph glyph-name="A" unicode="&#x41;" horiz-adv-x="642" d=" M79,712 L383,712 Q481,712 545.5,669 Q610,626 610,534 Q610,481 581.5,439.5 Q553,398 505,381 Q571,366 606.5,319 Q642,272 642,201 Q642,0 372,0 L79,0 M171,632 L171,407 L340,407 Q369,407 389.5,408.5 Q410,410 436,416 Q462,422 477.5,433.5 Q493,445 504.5,467 Q516,489 516,520 Q516,551 506,572.5 Q496,594 482,605.5 Q468,617 443.5,623 Q419,629 399.5,630.5 Q380,632 349,632 M171,333 L171,79 L359,79 Q394,79 416,80.5 Q438,82 465.5,89 Q493,96 509,109.5 Q525,123 536,148.5 Q547,174 547,210 Q547,240 539.5,262 Q532,284 514.5,297 Q497,310 481.5,318 Q466,326 437,329 Q408,332 392,332.5 Q376,333 343,333"/> 
            <glyph glyph-name="B" unicode="&#x42;" horiz-adv-x="682" d=" M682,269 Q670,134 588.5,58.5 Q507,-17 374,-17 Q222,-17 133,83.5 Q44,184 44,355 Q44,515 133.5,621.5 Q223,728 381,728 Q494,728 580,667 Q666,606 676,498 L582,498 Q566,568 512,607.5 Q458,647 379,647 Q260,647 199.5,563 Q139,479 139,356 Q139,220 203,142 Q267,64 378,64 Q469,64 523,116.5 Q577,169 588,269"/> 
            <glyph glyph-name="C" unicode="&#x43;" horiz-adv-x="664" d=" M79,712 L311,712 Q492,712 578,628 Q664,544 664,362 Q664,183 584,91.5 Q504,0 328,0 L79,0 M173,631 L173,81 L316,81 Q450,81 510.5,146.5 Q571,212 571,351 Q571,497 512,564 Q453,631 312,631"/> 
            <glyph glyph-name="D" unicode="&#x44;" horiz-adv-x="577" d=" M572,712 L572,630 L173,630 L173,407 L546,407 L546,328 L173,328 L173,82 L577,82 L577,0 L79,0 L79,712"/> 
            <glyph glyph-name="E" unicode="&#x45;" horiz-adv-x="548" d=" M548,712 L548,630 L174,630 L174,408 L504,408 L504,329 L174,329 L174,0 L80,0 L80,712"/> 
            <glyph glyph-name="F" unicode="&#x46;" horiz-adv-x="697" d=" M697,377 L697,0 L637,0 L613,89 Q527,-17 383,-17 Q231,-17 137.5,84.5 Q44,186 44,350 Q44,513 136.5,620 Q229,727 390,727 Q464,727 528,701.5 Q592,676 637,621.5 Q682,567 688,493 L596,493 Q585,563 528.5,605.5 Q472,648 390,648 Q274,648 206,568.5 Q138,489 138,353 Q138,219 206,140 Q274,61 389,61 Q497,61 553.5,126.5 Q610,192 613,300 L385,300 L385,377"/> 
            <glyph glyph-name="G" unicode="&#x47;" horiz-adv-x="643" d=" M643,712 L643,0 L549,0 L549,333 L173,333 L173,0 L79,0 L79,712 L173,712 L173,415 L549,415 L549,712"/> 
            <glyph glyph-name="H" unicode="&#x48;" horiz-adv-x="177" d=" M177,712 L177,0 L83,0 L83,712"/> 
            <glyph glyph-name="I" unicode="&#x49;" horiz-adv-x="443" d=" M443,712 L443,219 Q443,165 433.5,125 Q424,85 402,51.5 Q380,18 339,0.5 Q298,-17 238,-17 Q125,-17 75,39 Q25,95 25,207 Q25,221 26,234 L117,234 L117,209 Q117,137 141.5,99 Q166,61 237,61 Q269,61 290.5,71 Q312,81 323.5,94.5 Q335,108 341,133 Q347,158 348,177 Q349,196 349,228 L349,712"/> 
            <glyph glyph-name="J" unicode="&#x4A;" horiz-adv-x="669" d=" M657,712 L357,426 L669,0 L549,0 L291,362 L173,250 L173,0 L79,0 L79,712 L173,712 L173,359 L534,712"/> 
            <glyph glyph-name="K" unicode="&#x4B;" horiz-adv-x="552" d=" M552,82 L552,0 L80,0 L80,712 L174,712 L174,82"/> 
            <glyph glyph-name="L" unicode="&#x4C;" horiz-adv-x="791" d=" M80,712 L210,712 L439,109 L660,712 L791,712 L791,0 L702,0 L702,594 L479,0 L397,0 L170,594 L170,0 L80,0"/> 
            <glyph glyph-name="M" unicode="&#x4D;" horiz-adv-x="645" d=" M75,712 L178,712 L554,134 L554,712 L645,712 L645,0 L539,0 L165,571 L165,0 L75,0"/> 
            <glyph glyph-name="N" unicode="&#x4E;" horiz-adv-x="721" d=" M379,729 Q541,729 631,627.5 Q721,526 721,362 Q721,197 632,90 Q543,-17 380,-17 Q297,-17 231,13 Q165,43 123.5,96 Q82,149 60.5,217 Q39,285 39,364 Q39,531 131.5,630 Q224,729 379,729 M379,647 Q260,647 196.5,563.5 Q133,480 133,357 Q133,223 200.5,143.5 Q268,64 381,64 Q493,64 560,144 Q627,224 627,357 Q627,489 559.5,568 Q492,647 379,647"/> 
            <glyph glyph-name="O" unicode="&#x4F;" horiz-adv-x="613" d=" M83,712 L376,712 Q485,712 549,662.5 Q613,613 613,507 Q613,292 370,292 L177,292 L177,0 L83,0 M177,631 L177,371 L358,371 Q434,371 476.5,399.5 Q519,428 519,501 Q519,542 505.5,569 Q492,596 466,609 Q440,622 412,626.5 Q384,631 345,631"/> 
            <glyph glyph-name="P" unicode="&#x50;" horiz-adv-x="721" d=" M709,-2 L660,-61 L552,26 Q478,-17 378,-17 Q218,-17 128.5,91 Q39,199 39,364 Q39,529 132,628.5 Q225,728 380,728 Q538,728 629.5,629.5 Q721,531 721,359 Q721,174 615,73 M451,204 L545,127 Q627,209 627,357 Q627,488 560,567.5 Q493,647 382,647 Q263,647 198,564.5 Q133,482 133,360 Q133,233 196.5,148 Q260,63 384,63 Q441,63 481,83 L401,146"/> 
            <glyph glyph-name="Q" unicode="&#x51;" horiz-adv-x="658" d=" M79,712 L392,712 Q631,712 631,515 Q631,453 597.5,405.5 Q564,358 509,342 Q545,334 567,319 Q589,304 599,277 Q609,250 612,229 Q615,208 617,167 Q617,163 618,147.5 Q619,132 619,126.5 Q619,121 620.5,107 Q622,93 623,86 Q624,79 626,67 Q628,55 631,47.5 Q634,40 638,30.5 Q642,21 647,13.5 Q652,6 658,0 L550,0 Q543,10 538.5,25 Q534,40 532,60.5 Q530,81 529,93.5 Q528,106 527,130 Q526,154 526,157 Q521,248 488.5,278 Q456,308 360,308 L173,308 L173,0 L79,0 M173,632 L173,383 L350,383 Q383,383 405.5,385 Q428,387 455,394 Q482,401 498.5,414 Q515,427 526,451 Q537,475 537,509 Q537,581 493.5,606.5 Q450,632 375,632"/> 
            <glyph glyph-name="R" unicode="&#x52;" horiz-adv-x="611" d=" M583,503 L492,503 Q477,648 315,648 Q238,648 196,617 Q154,586 154,530 Q154,510 160,495 Q166,480 180.5,468.5 Q195,457 208,449 Q221,441 249,433 Q277,425 294,421.5 Q311,418 347,410 Q391,401 420,393.5 Q449,386 489,369 Q529,352 552.5,331.5 Q576,311 593.5,277 Q611,243 611,200 Q611,125 569,74.5 Q527,24 467,4 Q407,-16 334,-16 Q200,-16 119.5,47.5 Q39,111 39,235 L130,235 Q133,144 191,102.5 Q249,61 342,61 Q415,61 467,91.5 Q519,122 519,191 Q519,223 505,245.5 Q491,268 461,282.5 Q431,297 401,306 Q371,315 322,326 Q315,327 312,328 Q202,353 168,368 Q64,413 64,523 Q64,625 139.5,675.5 Q215,726 322,726 Q439,726 509,670 Q579,614 583,503"/> 
            <glyph glyph-name="S" unicode="&#x53;" horiz-adv-x="573" d=" M573,712 L573,630 L334,630 L334,0 L240,0 L240,630 L1,630 L1,712"/> 
            <glyph glyph-name="T" unicode="&#x54;" horiz-adv-x="648" d=" M74,712 L169,712 L169,263 Q169,159 214,111 Q259,63 361,63 Q466,63 509.5,112 Q553,161 553,263 L553,712 L648,712 L648,288 Q648,132 583,58.5 Q518,-15 361,-15 Q209,-15 141.5,56.5 Q74,128 74,278"/> 
            <glyph glyph-name="U" unicode="&#x55;" horiz-adv-x="613" d=" M-2,712 L102,712 L307,92 L514,712 L613,712 L359,0 L251,0"/> 
            <glyph glyph-name="V" unicode="&#x56;" horiz-adv-x="915" d=" M14,712 L111,712 L252,117 L413,712 L516,712 L675,117 L821,712 L915,712 L725,0 L626,0 L462,596 L296,0 L197,0"/> 
            <glyph glyph-name="W" unicode="&#x57;" horiz-adv-x="608" d=" M595,712 L358,367 L608,0 L494,0 L302,293 L103,0 L-5,0 L246,367 L11,712 L124,712 L303,438 L488,712"/> 
            <glyph glyph-name="X" unicode="&#x58;" horiz-adv-x="648" d=" M648,712 L373,291 L373,0 L280,0 L280,291 L3,712 L116,712 L329,373 L540,712"/> 
            <glyph glyph-name="Y" unicode="&#x59;" horiz-adv-x="585" d=" M574,712 L574,634 L130,82 L585,82 L585,0 L17,0 L17,80 L460,630 L52,630 L52,712"/> 
            <glyph glyph-name="Z" unicode="&#x5A;" horiz-adv-x="261" d=" M261,723 L261,655 L153,655 L153,-120 L261,-120 L261,-188 L72,-188 L72,723"/> 
            <glyph glyph-name="[" unicode="&#x5B;" horiz-adv-x="351" d=" M351,-17 L279,-17 L-18,729 L52,729"/> 
            <glyph glyph-name="\" unicode="&#x5C;" horiz-adv-x="187" d=" M187,723 L187,-188 L-2,-188 L-2,-120 L106,-120 L106,655 L-2,655 L-2,723"/> 
            <glyph glyph-name="]" unicode="&#x5D;" horiz-adv-x="501" d=" M99,281 L269,696 L331,696 L501,281 L432,281 L299,617 L168,281"/> 
            <glyph glyph-name="^" unicode="&#x5E;" horiz-adv-x="500" d=" M0,-125 L0,-75 L500,-75 L500,-125"/> 
            <glyph glyph-name="_" unicode="&#x5F;" horiz-adv-x="172" d=" M86,732 L172,590 L108,590 L-24,732"/> 
            <glyph glyph-name="`" unicode="&#x60;" horiz-adv-x="521" d=" M521,68 L521,2 Q495,-8 463,-8 Q390,-8 388,68 Q315,-14 201,-14 Q125,-14 80.5,25 Q36,64 36,132 Q36,270 219,293 Q231,295 254,297 Q341,307 361,320 Q384,336 384,375 Q384,460 267,460 Q207,460 176,435.5 Q145,411 139,355 L56,355 Q58,438 115,484 Q172,530 272,530 Q381,530 434,480 Q451,464 459,438 Q467,412 468,395.5 Q469,379 469,346 Q469,308 467,231 Q465,154 465,116 Q465,88 472.5,76.5 Q480,65 500,65 Q508,65 521,68 M384,268 Q375,261 365,256 Q355,251 339.5,248 Q324,245 318.5,243.5 Q313,242 292,239.5 Q271,237 270,237 Q239,233 229.5,231.5 Q220,230 193.5,223 Q167,216 156,207 Q145,198 134.5,180.5 Q124,163 124,139 Q124,99 151.5,76 Q179,53 227,53 Q288,53 336,89 Q384,125 384,174"/> 
            <glyph glyph-name="a" unicode="&#x61;" horiz-adv-x="552" d=" M148,712 L148,445 Q204,530 319,530 Q425,530 488.5,456.5 Q552,383 552,260 Q552,135 487,60 Q422,-15 314,-15 Q191,-15 143,75 L143,0 L63,0 L63,712 M306,458 Q224,458 184.5,399 Q145,340 145,254 Q145,163 188.5,109.5 Q232,56 306,56 Q377,56 420.5,111.5 Q464,167 464,259 Q464,350 421,404 Q378,458 306,458"/> 
            <glyph glyph-name="b" unicode="&#x62;" horiz-adv-x="508" d=" M508,188 Q497,95 437.5,40 Q378,-15 283,-15 Q166,-15 102,57.5 Q38,130 38,251 Q38,380 105,455.5 Q172,531 286,531 Q381,531 438,483.5 Q495,436 505,348 L417,348 Q394,460 287,460 Q213,460 170,405.5 Q127,351 127,258 Q127,164 168,110 Q209,56 281,56 Q339,56 375.5,90 Q412,124 422,188"/> 
            <glyph glyph-name="c" unicode="&#x63;" horiz-adv-x="529" d=" M529,712 L529,0 L449,0 L449,76 Q400,-14 279,-14 Q169,-14 104.5,59.5 Q40,133 40,259 Q40,376 100.5,453.5 Q161,531 275,531 Q386,531 444,447 L444,712 M286,458 Q213,458 170.5,405 Q128,352 128,261 Q128,167 171.5,111.5 Q215,56 288,56 Q362,56 404,109.5 Q446,163 446,258 Q446,343 406.5,400.5 Q367,458 286,458"/> 
            <glyph glyph-name="d" unicode="&#x64;" horiz-adv-x="511" d=" M505,163 Q466,-17 280,-17 Q166,-17 101.5,54 Q37,125 37,251 Q37,376 103.5,453.5 Q170,531 277,531 Q396,531 453.5,450.5 Q511,370 511,247 L511,235 L123,235 L122,229 Q122,147 165,100 Q208,53 283,53 Q339,53 371.5,79 Q404,105 422,163 M423,304 Q417,378 378,419.5 Q339,461 275,461 Q213,461 172,419 Q131,377 123,304"/> 
            <glyph glyph-name="e" unicode="&#x65;" horiz-adv-x="297" d=" M297,714 L297,640 Q275,644 250,644 Q210,644 197.5,631 Q185,618 185,575 L185,516 L284,516 L284,446 L185,446 L185,0 L99,0 L99,446 L12,446 L12,516 L99,516 L99,585 Q99,655 135,686.5 Q171,718 242,718 Q264,718 297,714"/> 
            <glyph glyph-name="f" unicode="&#x66;" horiz-adv-x="511" d=" M511,516 L511,56 Q511,-11 504,-47.5 Q497,-84 478,-116 Q421,-210 274,-210 Q187,-210 127,-174.5 Q67,-139 57,-58 L144,-58 Q159,-144 277,-144 Q356,-144 391.5,-104 Q427,-64 429,25 L430,88 Q381,-6 266,-6 Q162,-6 100.5,65 Q39,136 39,256 Q39,369 100,449.5 Q161,530 270,530 Q324,530 366.5,507 Q409,484 433,441 L433,516 M274,456 Q205,456 165.5,402.5 Q126,349 126,255 Q126,170 167,118.5 Q208,67 276,67 Q347,67 387.5,121 Q428,175 428,269 Q428,357 387.5,406.5 Q347,456 274,456"/> 
            <glyph glyph-name="g" unicode="&#x67;" horiz-adv-x="492" d=" M149,712 L149,443 Q206,529 318,529 Q492,529 492,353 L492,0 L407,0 L407,333 Q407,392 382.5,423.5 Q358,455 294,455 Q216,455 182.5,405 Q149,355 149,262 L149,0 L64,0 L64,712"/> 
            <glyph glyph-name="h" unicode="&#x68;" horiz-adv-x="154" d=" M154,712 L154,608 L68,608 L68,712 M154,516 L154,0 L68,0 L68,516"/> 
            <glyph glyph-name="i" unicode="&#x69;" horiz-adv-x="156" d=" M156,516 L156,-57 Q156,-135 129,-171.5 Q102,-208 24,-208 Q8,-208 -15,-204 L-15,-133 Q11,-135 14,-135 Q35,-135 47,-131 Q59,-127 64,-114 Q69,-101 69.5,-91.5 Q70,-82 70,-55 L70,516 M156,712 L156,608 L70,608 L70,712"/> 
            <glyph glyph-name="j" unicode="&#x6A;" horiz-adv-x="513" d=" M498,516 L293,329 L513,0 L405,0 L228,270 L147,195 L147,0 L64,0 L64,712 L147,712 L147,291 L384,516"/> 
            <glyph glyph-name="k" unicode="&#x6B;" horiz-adv-x="154" d=" M154,712 L154,0 L68,0 L68,712"/> 
            <glyph glyph-name="l" unicode="&#x6C;" horiz-adv-x="789" d=" M144,516 L144,441 Q178,487 217,508 Q256,529 312,529 Q418,529 455,440 Q522,530 626,530 Q706,530 747.5,485.5 Q789,441 789,361 L789,0 L704,0 L704,325 Q704,389 684,421.5 Q664,454 601,454 Q469,454 469,293 L469,0 L384,0 L384,331 Q384,390 364.5,421.5 Q345,453 289,453 Q210,453 179.5,404.5 Q149,356 149,273 L149,0 L64,0 L64,516"/> 
            <glyph glyph-name="m" unicode="&#x6D;" horiz-adv-x="492" d=" M144,516 L144,436 Q208,530 320,530 Q411,530 451.5,482.5 Q492,435 492,343 L492,0 L407,0 L407,304 Q407,342 404.5,363.5 Q402,385 392,409.5 Q382,434 358,445 Q334,456 296,456 Q149,456 149,270 L149,0 L64,0 L64,516"/> 
            <glyph glyph-name="n" unicode="&#x6E;" horiz-adv-x="537" d=" M173,531 Q407,531 472,460 Q537,389 537,261 Q537,130 472,57 Q407,-16 289,-16 Q171,-16 104,56 Q37,128 37,256 Q37,383 173,531 M363,460 Q213,460 169,405 Q125,350 125,258 Q125,163 168.5,109.5 Q212,56 290,56 Q365,56 407.5,110 Q450,164 450,259 Q450,351 363,460"/> 
            <glyph glyph-name="o" unicode="&#x6F;" horiz-adv-x="553" d=" M144,516 L144,443 Q200,532 318,532 Q426,532 489.5,459 Q553,386 553,261 Q553,136 490.5,61.5 Q428,-13 322,-13 Q211,-13 149,72 L149,-199 L64,-199 L64,516 M305,461 Q231,461 188.5,407.5 Q146,354 146,260 Q146,166 189.5,112.5 Q233,59 308,59 Q381,59 423,113 Q465,167 465,260 Q465,354 422.5,407.5 Q380,461 305,461"/> 
            <glyph glyph-name="p" unicode="&#x70;" horiz-adv-x="529" d=" M529,516 L529,-199 L444,-199 L444,73 Q391,-13 271,-13 Q160,-13 100.5,64.5 Q41,142 41,256 Q41,383 105,457.5 Q169,532 279,532 Q396,532 450,443 L450,516 M286,461 Q215,461 172,405.5 Q129,350 129,257 Q129,166 171.5,112 Q214,58 287,58 Q361,58 404,112.5 Q447,167 447,262 Q447,355 404,408 Q361,461 286,461"/> 
            <glyph glyph-name="q" unicode="&#x71;" horiz-adv-x="333" d=" M333,528 L333,440 Q324,441 311,441 Q270,441 240,428.5 Q210,416 192.5,396 Q175,376 164,346 Q153,316 149.5,286 Q146,256 146,218 L146,0 L61,0 L61,516 L142,516 L142,405 Q193,528 333,528"/> 
            <glyph glyph-name="r" unicode="&#x72;" horiz-adv-x="468" d=" M447,366 L362,366 Q354,460 236,460 Q187,460 159,441 Q131,422 131,390 Q131,381 133,372.5 Q135,364 140.5,357.5 Q146,351 150.5,346 Q155,341 165.5,336.5 Q176,332 181.5,329 Q187,326 201.5,322.5 Q216,319 222,317.5 Q228,316 245.5,312 Q263,308 268,307 Q305,299 323.5,294 Q342,289 374.5,275.5 Q407,262 424,247.5 Q441,233 454.5,207.5 Q468,182 468,150 Q468,75 409.5,29.5 Q351,-16 254,-16 Q149,-16 92.5,30 Q36,76 32,163 L116,163 Q123,54 256,54 Q313,54 347.5,77.5 Q382,101 382,140 Q382,166 364,183 Q346,200 324,207.5 Q302,215 261,225 Q255,226 252,227 Q243,229 213.5,235.5 Q184,242 171,246 Q158,250 133.5,258.5 Q109,267 97,276.5 Q85,286 70.5,300.5 Q56,315 50,334.5 Q44,354 44,379 Q44,449 97.5,490 Q151,531 241,531 Q332,531 389.5,488 Q447,445 447,366"/> 
            <glyph glyph-name="s" unicode="&#x73;" horiz-adv-x="285" d=" M285,516 L285,446 L182,446 L182,145 Q182,120 182.5,112 Q183,104 188,90.5 Q193,77 205,73 Q217,69 239,69 Q258,69 285,72 L285,-1 Q249,-5 220,-5 Q184,-5 160,3 Q136,11 123.5,21 Q111,31 105,56.5 Q99,82 98,99.5 Q97,117 97,158 Q97,161 97,162.5 Q97,164 97,167 Q97,170 97,172 L97,446 L10,446 L10,516 L97,516 L97,669 L182,669 L182,516"/> 
            <glyph glyph-name="t" unicode="&#x74;" horiz-adv-x="492" d=" M492,516 L492,0 L413,0 L413,81 Q347,-14 235,-14 Q153,-14 108,31 Q63,76 63,161 L63,516 L148,516 L148,184 Q148,123 171.5,91.5 Q195,60 256,60 Q407,60 407,246 L407,516"/> 
            <glyph glyph-name="u" unicode="&#x75;" horiz-adv-x="486" d=" M14,516 L109,516 L255,83 L397,516 L486,516 L297,0 L206,0"/> 
            <glyph glyph-name="v" unicode="&#x76;" horiz-adv-x="741" d=" M17,516 L111,516 L229,91 L334,516 L427,516 L536,91 L653,516 L741,516 L576,0 L486,0 L380,408 L275,0 L183,0"/> 
            <glyph glyph-name="w" unicode="&#x77;" horiz-adv-x="509" d=" M488,516 L308,278 L509,0 L400,0 L255,212 L112,0 L9,0 L203,272 L24,516 L132,516 L257,339 L385,516"/> 
            <glyph glyph-name="x" unicode="&#x78;" horiz-adv-x="491" d=" M491,516 L270,-66 Q257,-101 247.5,-120.5 Q238,-140 220.5,-163.5 Q203,-187 178.5,-197.5 Q154,-208 121,-208 Q96,-208 58,-199 L58,-123 Q95,-134 113,-134 Q155,-134 173,-91 L213,3 L8,516 L104,516 L257,105 L402,516"/> 
            <glyph glyph-name="y" unicode="&#x79;" horiz-adv-x="458" d=" M445,516 L445,460 L131,72 L458,72 L458,0 L22,0 L22,65 L330,446 L42,446 L42,516"/> 
            <glyph glyph-name="z" unicode="&#x7A;" horiz-adv-x="331" d=" M2,288 Q79,297 100,328 Q121,359 121,438 L121,486 Q121,605 166,660 Q211,715 331,723 L331,671 Q258,664 230,632 Q202,600 202,528 L202,464 Q202,421 198.5,393 Q195,365 183,336 Q171,307 144.5,290 Q118,273 76,267 Q111,262 135,249 Q159,236 172,220 Q185,204 192,176.5 Q199,149 200.5,127.5 Q202,106 202,70 L202,18 Q202,-62 228.5,-97 Q255,-132 331,-136 L331,-188 Q215,-181 168,-128 Q121,-75 121,39 L121,97 Q121,178 98.5,208.5 Q76,239 2,246"/> 
            <glyph glyph-name="{" unicode="&#x7B;" horiz-adv-x="144" d=" M78,-214 L78,786 L144,786 L144,-214"/> 
            <glyph glyph-name="|" unicode="&#x7C;" horiz-adv-x="331" d=" M331,246 Q257,239 234.5,208.5 Q212,178 212,97 L212,39 Q212,-75 165,-128 Q118,-181 2,-188 L2,-136 Q78,-132 104.5,-97 Q131,-62 131,18 L131,70 Q131,106 132.5,127.5 Q134,149 141,176.5 Q148,204 161,220 Q174,236 198,249 Q222,262 257,267 Q215,273 188.5,290 Q162,307 150,336 Q138,365 134.5,393 Q131,421 131,464 L131,528 Q131,600 103,632 Q75,664 2,671 L2,723 Q122,715 167,660 Q212,605 212,486 L212,438 Q212,359 233,328 Q254,297 331,288"/> 
            <glyph glyph-name="}" unicode="&#x7D;" horiz-adv-x="562" d=" M562,330 Q555,264 522.5,228.5 Q490,193 436,193 Q403,193 298,228 Q285,232 262.5,239.5 Q240,247 229.5,250.5 Q219,254 204.5,258.5 Q190,263 180,264.5 Q170,266 161,266 Q131,266 109.5,243.5 Q88,221 83,186 L38,186 Q43,245 74.5,285 Q106,325 163,325 Q179,325 201,320.5 Q223,316 237,311.5 Q251,307 278,298 Q305,289 313,286 Q319,284 341.5,276.5 Q364,269 377,264.5 Q390,260 409,256 Q428,252 441,252 Q473,252 493.5,274.5 Q514,297 519,330"/> 
            </font>
</defs>
</svg>
